<?xml version="1.0" encoding="UTF-8" standalone="no"?>
<!-- Created with Inkscape (http://www.inkscape.org/) -->

<svg
   xmlns:dc="http://purl.org/dc/elements/1.1/"
   xmlns:cc="http://creativecommons.org/ns#"
   xmlns:rdf="http://www.w3.org/1999/02/22-rdf-syntax-ns#"
   xmlns:svg="http://www.w3.org/2000/svg"
   xmlns="http://www.w3.org/2000/svg"
   xmlns:sodipodi="http://sodipodi.sourceforge.net/DTD/sodipodi-0.dtd"
   xmlns:inkscape="http://www.inkscape.org/namespaces/inkscape"
   width="98.807434"
   height="98.807434"
   id="svg3023"
   version="1.1"
   inkscape:version="0.48.5 r10040"
   sodipodi:docname="monarch.svg">
  <defs
     id="defs3025" />
  <sodipodi:namedview
     id="base"
     pagecolor="#ffffff"
     bordercolor="#666666"
     borderopacity="1.0"
     inkscape:pageopacity="0.0"
     inkscape:pageshadow="2"
     inkscape:zoom="3.0615567"
     inkscape:cx="52.840379"
     inkscape:cy="48.643557"
     inkscape:document-units="px"
     inkscape:current-layer="layer1"
     showgrid="false"
     inkscape:window-width="1280"
     inkscape:window-height="752"
     inkscape:window-x="0"
     inkscape:window-y="0"
     inkscape:window-maximized="1"
     fit-margin-top="0"
     fit-margin-left="0"
     fit-margin-right="0"
     fit-margin-bottom="0"
     inkscape:showpageshadow="false" />
  <metadata
     id="metadata3028">
    <rdf:RDF>
      <cc:Work
         rdf:about="">
        <dc:format>image/svg+xml</dc:format>
        <dc:type
           rdf:resource="http://purl.org/dc/dcmitype/StillImage" />
        <dc:title></dc:title>
      </cc:Work>
    </rdf:RDF>
  </metadata>
  <g
     inkscape:label="Layer 1"
     inkscape:groupmode="layer"
     id="layer1"
     transform="translate(-258.5882,-438.88766)">
    <g
       id="g10001"
       transform="matrix(0.02856427,-0.00608902,0.00608902,0.02856427,256.89146,441.75368)">
      <path
         inkscape:connector-curvature="0"
         sodipodi:nodetypes="csssssscsssscsssssssssssscssssssssccssssssccscc"
         id="path8732"
         d="m 573.05714,1871.626 c -25.2069,-5.692 -67.2451,-24.9917 -88.47,-40.6166 -37.7314,-27.7763 -76.6706,-80.3494 -150.4329,-203.1048 -19.8514,-33.0367 -31.1832,-57.6848 -39.8928,-86.7718 -6.6909,-22.3453 -18.8271,-60.1513 -26.9695,-84.0136 -13.211,-38.7165 -23.92378,-46.3822 -23.84628,-83.8402 0.098,-47.4016 13.99258,-95.6236 25.50638,-162.0135 6.9453,-40.047 11.3934,-52.5766 37.4063,-105.3658 20.8062,-42.2234 28.9346,-63.0106 27.5288,-70.4015 -4.9368,-25.954 -58.9428,-170.8639 -80.9679,-217.2546 -13.3972,-28.2183 -38.0611,-71.2633 -54.8084,-95.6556 -37.6064,-54.7737 -47.4031,-72.0141 -66.5422,-117.1047 -14.7636,-34.7819 -15.0961,-36.7428 -15.0657,-88.8378 0.058,-98.991 9.2711,-131.9054 48.6175,-173.691 32.7878,-34.8203 41.9435,-38.4612 104.6262,-41.606 52.202,-2.619 93.5366,4.5476 152.4927,26.4393 44.5465,16.5411 90.1377,39.429 83.1678,41.7523 -5.1217,1.7072 -6.5423,21.4338 -1.5609,21.674 1.7045,0.0823 16.1353,0.5471 32.0685,1.033 27.4102,0.8361 31.7471,2.4233 80.5738,29.4896 163.5578,90.6655 266.6953,165.3093 399.05926,288.8114 48.6337,45.3776 57.3047,55.2282 52.6829,59.85 -3.0428,3.0427 -5.5323,7.1163 -5.5323,9.0521 0,8.9099 23.2336,29.561 44.6097,39.6513 12.9626,6.1188 34.7246,19.6068 48.3602,29.9734 56.3683,42.8546 200.779,199.5145 267.6119,290.311 35.9271,48.8094 66.2601,73.4009 98.8478,80.1381 7.5261,1.5559 30.0186,10.2616 49.9833,19.3461 32.8976,14.969 38.3192,16.2457 57.8479,13.622 11.8518,-1.5923 24.2696,-4.3781 27.5956,-6.1908 3.9576,-2.1569 10.2762,0.2627 18.2858,7.0024 7.7377,6.5108 15.6811,9.6399 21.5991,8.5086 7.2646,-1.3886 10.4765,0.9046 14.3439,10.2414 6.9106,16.6837 -4.4374,56.3583 -23.5782,82.4334 -20.4665,27.8809 -22.5532,38.267 -13.4579,66.9855 -94.9595,-93.7607 -77.9358,-85.3778 -113.2953,-46.5101 -42.4679,-13.4861 -15.1636,87.499 -35.9704,104.8827 -9.5204,7.954 -19.8584,14.4619 -22.9732,14.4619 -3.1148,0 -12.0164,5.5782 -19.7815,12.396 -7.765,6.8178 -15.9907,12.396 -18.2794,12.396 -2.2886,0 -35.0098,14.7585 -72.7138,32.7967 -37.7039,18.0381 -69.5181,31.2345 -70.6981,29.3252 -5.7717,-9.3388 -44.0489,-0.4747 -101.3216,23.4636 -136.9641,57.2467 -263.32416,115.9666 -346.97166,161.2384 -194.1411,105.0736 -203.1336,108.8383 -258.0824,108.0483 -18.3364,-0.2635 -37.0578,-1.3191 -41.603,-2.3454 l 0,10e-5 z"
         style="fill:#ffffff;fill-opacity:1;fill-rule:nonzero;stroke:#020202;stroke-width:0;stroke-linecap:round;stroke-linejoin:round;stroke-miterlimit:4;stroke-opacity:1;stroke-dasharray:none;stroke-dashoffset:0;marker:none;visibility:visible;display:inline;overflow:visible;enable-background:accumulate" />
      <g
         transform="matrix(0.6431029,-0.02284907,0.02284907,0.6431029,-7913.0373,115.64142)"
         id="g5261">
        <path
           inkscape:connector-curvature="0"
           style="fill:#ff7f2a;fill-opacity:1;fill-rule:nonzero;stroke:#020202;stroke-width:0;stroke-linecap:round;stroke-linejoin:round;stroke-miterlimit:4;stroke-opacity:1;stroke-dashoffset:0;marker:none;visibility:visible;display:inline;overflow:visible;enable-background:accumulate"
           d="m 12915.438,901.75 c -24.894,0.0793 -47.922,2.93875 -67.813,8.25 -39.782,10.62249 -67.376,30.85888 -73.313,58.71875 -2.776,13.03394 -0.316,26.70512 6.094,40.03125 -38.179,10.8381 -64.618,30.9026 -70.406,58.0625 -10.39,48.7548 48.776,103.7714 137.094,132.4375 -2.778,0.2952 -5.679,0.8903 -8.469,1.5312 -37.677,8.6574 -61.219,46.2293 -52.563,83.9063 8.658,37.677 46.261,61.2198 83.938,52.5625 37.677,-8.6573 61.219,-46.2293 52.562,-83.9062 -4.156,-18.0859 -15.229,-32.5801 -29.531,-42.1563 106.868,20.9808 202.015,-5.4599 213.657,-60.0937 2.778,-13.0339 -0.03,-26.2052 -6.438,-39.5313 38.418,-10.8076 65.003,-30.8915 70.812,-58.1563 11.874,-55.71976 -67.143,-119.89463 -176.593,-143.2187 -27.362,-5.83101 -54.138,-8.51679 -79.031,-8.4375 z m 238.25,563.9375 c -13.304,0.092 -27.215,1.6669 -41.313,4.9063 -69.405,15.9477 -117.23,65.9222 -106.75,111.5312 10.48,45.609 75.314,69.6665 144.719,53.7188 69.405,-15.9478 117.23,-65.8911 106.75,-111.5 -8.351,-36.3447 -51.216,-59.0165 -103.406,-58.6563 z m 239.406,292.2813 c -17.564,0.2385 -35.562,3.0714 -55.156,8.125 -144.132,38.6962 -239.942,103.1294 -361.719,186.1562 -53.626,113.239 -131.407,68.7544 -154.063,151.5312 -7.849,32.9193 -1.874,183.0998 -8.312,275.0938 -7.639,109.1564 76.641,160.2704 94.281,189.0312 -18.773,146.1362 73.971,154.3775 146.094,184.1876 26.606,458.9271 114.702,198.7145 300.406,351.6874 126.164,-46.6094 771.362,-355.7504 881.469,-393.625 102.207,-35.4748 -8.676,-227.8448 -99.375,-161.0624 49.709,-86.1389 44.155,-101.4303 74.219,-185.6876 37.11,-123.4862 114.68,84.4475 190.156,-84.6874 28.485,-63.8331 -76.377,-205.9423 -89.969,-235.7813 -30.458,-69.1169 -196.059,9.982 -262.25,-23.5 -260.129,-247.193 -255.539,-80.715 -356.625,-85.375 -155.042,-129.219 -223.048,-177.1274 -299.156,-176.0937 z"
           id="path3483" />
        <path
           inkscape:connector-curvature="0"
           style="fill:#000000"
           d="m 451.78125,-684.15625 c -0.93974,0.0267 -1.86737,0.13827 -2.71875,0.3125 -0.21624,0.0443 -0.44987,0.10343 -0.65625,0.15625 -1.99262,0.50996 -3.48096,1.38069 -3.71875,2.4375 -0.0819,0.36386 -0.32987,0.78768 -0.5625,0.90625 -0.70113,0.35735 -1.13957,3.54837 -0.6875,5.0625 0.23281,0.77971 0.44104,1.89623 0.4375,2.5 -0.004,0.69153 0.30372,1.5928 0.875,2.4375 0.49878,0.73746 1.1357,1.69652 1.40625,2.125 0.61211,0.96947 2.52873,2.88513 3.1875,3.1875 0.27073,0.12425 0.99097,0.8664 1.59375,1.65625 0.60277,0.78982 1.5591,1.94876 2.125,2.59375 0.5659,0.64496 1.61416,2.39671 2.34375,3.875 0.72957,1.47828 1.50686,2.65841 1.625,2.78125 0.96181,0.99998 0.0546,0.3961 0.125,1.40625 -0.007,0.51316 -0.33127,1.70479 -0.71875,2.65625 -0.38749,0.95145 -0.58273,1.96512 -0.4375,2.25 0.14521,0.28489 0.21515,1.34136 0.15625,2.34375 -0.0589,1.00235 -0.0218,1.94112 0.0937,2.0625 0.1156,0.12138 0.24863,1.26651 0.28125,2.5625 0.0584,2.32037 0.0936,2.41817 2,5.3125 1.06477,1.61652 1.89507,3.131 1.875,3.375 -0.0344,0.41761 0.68436,1.25635 3.25,3.84375 0.5969,0.60195 1.78944,1.83252 2.65625,2.75 2.4952,2.64101 5.30024,3.96742 8.46875,3.96875 2.61408,10e-4 4.72244,-1.12802 8.375,-4.46875 4.8781,-4.4617 6.70007,-5.99901 12.40625,-9.875 0.56408,-0.38315 6.42386,-4.57309 6.21875,-4.3125 -0.33239,0.42228 -0.2857,0.37417 -0.40625,0.78125 -0.0635,0.21446 -0.0657,0.44313 0,0.65625 0.0657,0.21308 0.19719,0.41341 0.375,0.6875 0.45029,0.69406 0.81257,0.85824 1.625,2.21875 0.0596,-0.0242 0.12575,-0.0406 0.1875,-0.0625 -0.83326,-1.38393 -1.21385,-1.5681 -1.65625,-2.25 -0.17383,-0.26794 -0.28803,-0.47555 -0.34375,-0.65625 -0.0557,-0.18073 -0.0535,-0.35071 0,-0.53125 0.10694,-0.36113 0.17627,-0.58212 0.84375,-0.8125 1.03614,-0.35767 0.28906,-0.26978 -0.1875,0.53125 -0.19223,0.37962 -0.13371,0.72159 0.0937,1.15625 0.34353,0.65644 0.8159,0.99483 1.75,2.40625 0.0629,-0.0145 0.1231,-0.0191 0.1875,-0.0312 -0.97076,-1.48181 -1.45571,-1.84667 -1.78125,-2.46875 -0.21235,-0.40585 -0.22789,-0.64213 -0.0625,-0.96875 0.14369,-0.28382 0.67116,-0.57329 1.25,-0.9375 1.57718,-0.99234 2.78748,-2.24451 4.3125,-3.4375 -1.14649,3.56931 -0.54056,3.95629 -0.0312,5.5625 0.56957,1.79629 0.94095,1.47322 1.78125,2.6875 0.0197,0.0336 0.0548,0.0336 0.0937,0.0312 0.0389,-0.002 0.0781,-0.0268 0.0937,-0.0625 0.0156,-0.0357 -0.007,-0.0636 -0.0312,-0.0937 -0.86141,-1.24481 -1.16762,-0.8869 -1.71875,-2.625 -0.50395,-1.58929 -1.15452,-2.32952 0.25,-5.8125 0.19825,-0.49164 0.86376,-0.90923 1.21875,-1 0.33111,-0.0847 0.75459,-0.0525 1,0.0625 0.23849,0.11176 0.39387,0.22715 0.5625,0.34375 0.16863,0.11656 0.3955,0.18964 0.59375,0.375 0.15139,0.14153 0.21974,0.35543 0.3125,0.53125 0.0928,0.17582 0.1701,0.36551 0.25,0.53125 0.0799,0.16571 0.1509,0.31268 0.21875,0.46875 0.0678,0.15604 0.13092,0.32197 0.1875,0.46875 0.0566,0.14676 0.11014,0.26835 0.15625,0.40625 0.0461,0.13791 0.0886,0.27685 0.125,0.40625 0.0364,0.1294 0.0662,0.25369 0.0937,0.375 0.0276,0.1213 0.043,0.26139 0.0625,0.375 0.0195,0.1136 0.0503,0.20619 0.0625,0.3125 0.0122,0.1063 -0.006,0.2131 0,0.3125 0.006,0.0994 0.0312,0.18836 0.0312,0.28125 3e-5,0.0929 -0.0264,0.19447 -0.0312,0.28125 -0.005,0.0868 0.009,0.16893 0,0.25 -0.009,0.0811 -0.019,0.143 -0.0312,0.21875 -0.0122,0.0758 -0.0478,0.14792 -0.0625,0.21875 -0.0147,0.0708 -0.0149,0.15244 -0.0312,0.21875 -0.003,0.0102 -0.002,0.0209 0,0.0312 -0.002,0.0103 -0.002,0.0209 0,0.0312 0.008,0.0126 0.0186,0.0233 0.0312,0.0312 0.0104,0.002 0.0209,0.002 0.0312,0 0.008,0.0126 0.0186,0.0233 0.0312,0.0312 0.0104,0.002 0.0209,0.002 0.0312,0 0.0126,-0.008 0.0233,-0.0186 0.0312,-0.0312 0.0126,-0.008 0.0233,-0.0186 0.0312,-0.0312 0.002,-0.0104 0.002,-0.0209 0,-0.0312 0.0572,-0.27081 0.10766,-0.55172 0.125,-0.8125 0.0174,-0.26075 -0.0138,-0.49762 -0.0312,-0.75 -0.0175,-0.25242 -0.0465,-0.50438 -0.0937,-0.75 -0.0472,-0.24559 -0.0842,-0.47829 -0.15625,-0.71875 -0.072,-0.24045 -0.15826,-0.48181 -0.25,-0.71875 -0.0918,-0.23693 -0.20608,-0.48372 -0.3125,-0.71875 -0.1064,-0.23506 -0.22768,-0.45274 -0.34375,-0.6875 -0.058,-0.11739 -0.0968,-0.25739 -0.15625,-0.375 -0.0595,-0.11763 -0.0916,-0.26042 -0.1875,-0.34375 -0.16356,-0.1422 -0.39557,-0.22114 -0.59375,-0.34375 -0.19817,-0.1226 -0.39804,-0.25416 -0.59375,-0.375 -0.23043,-0.108 -0.47216,-0.20146 -0.78125,-0.21875 0.24629,-0.32075 0.38669,-0.55216 0.5625,-0.96875 0.085,-0.20141 1.90075,-0.0545 2.25,-0.0312 0.71856,0.0486 1.19981,0.0903 1.5,0.21875 0.30016,0.12846 0.4315,0.30063 0.53125,0.71875 0.0998,0.41812 0.13713,1.0655 0.1875,2 0.0575,1.06552 0.2728,3.8577 0.625,4.5625 0.12778,0.42002 0.30147,-0.0764 0.15625,-0.0937 -0.34056,-0.67927 -0.50616,-3.42346 -0.5625,-4.46875 -0.0503,-0.93458 -0.11087,-1.57905 -0.21875,-2.03125 -0.10789,-0.4522 -0.30265,-0.72369 -0.65625,-0.875 -0.35361,-0.15133 -0.84188,-0.20125 -1.5625,-0.25 -0.53866,-0.0364 -1.19352,-0.0714 -2.03125,-0.15625 0.12669,-0.22554 0.26533,-0.51897 0.53125,-0.59375 0.81717,-0.22978 1.1623,-0.47102 1.6875,-0.65625 0.0371,0.38562 0.23709,0.76407 0.53125,1.03125 0.40363,0.36664 0.93288,0.60759 1.40625,0.5625 0.42561,-0.0406 0.82108,-0.23504 1.0625,-0.625 0.23691,0.48932 2.33172,7.76571 2.71875,8.5625 0.0152,0.0351 0.0556,0.0593 0.0937,0.0625 0.0381,0.003 0.073,-0.0304 0.0937,-0.0625 0.0208,-0.0321 0.0185,-0.0603 0,-0.0937 -0.42093,-0.86659 -2.52894,-8.20715 -2.78125,-8.71875 0.15619,-0.28445 0.44917,-0.74845 0.25,-1.40625 -0.33329,-1.10067 -0.58364,-1.194 -0.96875,-1.75 -0.15526,-0.22416 -0.1977,-0.49067 -0.0937,-0.875 0.13712,-0.50691 0.49967,-1.12839 0.78125,-1.40625 0.28161,-0.27787 0.41979,-0.69302 0.3125,-0.90625 -0.10729,-0.21321 -0.0372,-0.92941 -0.0312,-1.5625 0.0101,-1.08155 -0.68244,-1.60915 -0.90625,-1.6875 -0.13646,-0.0477 0.0452,-0.51951 0.15625,-0.78125 0.11103,-0.26177 0.22647,-0.50529 0.34375,-0.75 0.11728,-0.24476 0.25172,-0.49034 0.375,-0.71875 0.12325,-0.22843 0.24598,-0.44341 0.375,-0.65625 0.12904,-0.21283 0.27174,-0.42705 0.40625,-0.625 0.1345,-0.19793 0.26651,-0.3787 0.40625,-0.5625 0.13974,-0.18378 0.26152,-0.36089 0.40625,-0.53125 0.1447,-0.17036 0.3193,-0.34236 0.46875,-0.5 0.14944,-0.15762 0.28361,-0.29187 0.4375,-0.4375 0.15392,-0.14566 0.31066,-0.30315 0.46875,-0.4375 0.15811,-0.13434 0.30671,-0.25121 0.46875,-0.375 0.16205,-0.12381 0.33427,-0.26107 0.5,-0.375 0.16574,-0.11393 0.33083,-0.2077 0.5,-0.3125 0.16919,-0.10483 0.3589,-0.21611 0.53125,-0.3125 0.17232,-0.0964 0.32473,-0.19253 0.5,-0.28125 0.17528,-0.0887 0.35329,-0.16826 0.53125,-0.25 3.0111,-1.38273 6.39074,-1.81568 9.5,-3 0.20691,-0.0788 0.0682,-0.40474 -0.0937,-0.34375 -3.09405,1.16456 -6.40324,1.8566 -9.4375,3.25 -0.18115,0.0832 -0.38398,0.1595 -0.5625,0.25 -0.17852,0.0905 -0.35569,0.18272 -0.53125,0.28125 -0.17556,0.0985 -0.32765,0.20519 -0.5,0.3125 -0.17234,0.10729 -0.36239,0.22698 -0.53125,0.34375 -0.16887,0.11676 -0.33492,0.21678 -0.5,0.34375 -0.16508,0.12697 -0.30772,0.26835 -0.46875,0.40625 -0.16106,0.13788 -0.34328,0.28792 -0.5,0.4375 -0.15669,0.14956 -0.28541,0.30682 -0.4375,0.46875 -0.1521,0.16191 -0.32155,0.32497 -0.46875,0.5 -0.1472,0.17502 -0.29545,0.34237 -0.4375,0.53125 -0.14201,0.18882 -0.26968,0.39034 -0.40625,0.59375 -0.13655,0.2034 -0.2754,0.43757 -0.40625,0.65625 -0.13088,0.21865 -0.25016,0.42157 -0.375,0.65625 -0.12485,0.23466 -0.25645,0.49858 -0.375,0.75 -0.11857,0.25138 -0.23174,0.5124 -0.34375,0.78125 -0.11201,0.26884 -0.19447,0.62912 -0.40625,0.84375 -0.13896,0.14079 -0.56932,0.21562 -0.84375,-0.0625 -0.18029,-0.18268 -0.42487,-0.15281 -0.5,-0.28125 -0.0883,-0.15096 0.0533,-0.55713 0.15625,-0.84375 0.10296,-0.28665 0.20753,-0.56493 0.3125,-0.84375 0.20996,-0.55764 0.40678,-1.09813 0.625,-1.625 0.43644,-1.05376 0.9037,-2.03523 1.375,-2.96875 0.94259,-1.86706 1.96625,-3.49668 3.0625,-4.90625 2.29335,-2.94886 5.0017,-4.61639 8.09375,-5.78125 0.19281,-0.0726 0.0952,-0.52097 -0.125,-0.4375 -3.1119,1.1795 -5.75629,3.16277 -8.0625,6.125 -1.10684,1.42169 -2.14398,3.08682 -3.09375,4.96875 -0.47487,0.94097 -0.9358,1.93803 -1.375,3 -0.21961,0.53096 -0.41388,1.06304 -0.625,1.625 -0.10558,0.28095 -0.209,0.55493 -0.3125,0.84375 -0.10352,0.28879 -0.27262,0.75211 -0.46875,0.9375 -0.16426,0.15521 -0.42975,0.1327 -0.84375,0.34375 -1.0259,0.5229 -1.57094,0.53229 -2.75,0.0625 -0.80506,-0.32082 -1.63307,-0.51367 -1.84375,-0.40625 -0.5937,0.30259 -3.35149,-0.58958 -3.65625,-1.1875 -0.45139,-0.88553 -7.72318,-6.50788 -11.6875,-9.03125 -2.1864,-1.39166 -4.0643,-2.3353 -4.5625,-2.28125 -0.98014,0.10634 -3.0298,-0.91684 -2.4375,-1.21875 0.20912,-0.10663 0.73483,-0.0567 1.15625,0.125 1.16993,0.50432 -2.32961,-1.77639 -5.875,-3.84375 -4.431,-2.58378 -8.41089,-4.31716 -14.5625,-6.375 -4.55624,-1.52412 -5.41221,-1.69248 -6.0625,-1.1875 -0.48465,0.37635 -1.0031,0.45281 -1.4375,0.25 -0.58154,-0.2715 -0.56835,-0.3026 0.0312,-0.1875 0.38513,0.0739 0.81286,-0.0558 0.96875,-0.3125 0.30081,-0.49528 -1.77998,-1.06944 -5.6875,-1.5625 -0.41665,-0.0526 -0.82932,-0.10902 -1.25,-0.125 -0.31551,-0.012 -0.62425,-0.009 -0.9375,0 z m 3.8125,0.71875 c 0.1344,0.008 0.28917,0.0433 0.40625,0.0937 1.0221,0.44018 0.67469,0.91619 -0.5625,0.78125 -0.92005,-0.10034 -1.05211,-0.0258 -1,0.46875 0.0331,0.31439 -0.14316,0.66655 -0.375,0.78125 -0.76287,0.37745 -1.62037,0.10574 -1.6875,-0.53125 -0.0705,-0.66869 0.69009,-1.25859 1.21875,-0.9375 0.17561,0.10663 0.62106,-0.0182 1,-0.3125 0.17853,-0.13865 0.38021,-0.26325 0.59375,-0.3125 0.13728,-0.0317 0.27185,-0.0397 0.40625,-0.0312 z m -6.78125,0.34375 c 0.39969,-0.006 0.74215,0.12217 0.71875,0.40625 -0.0425,0.51608 -0.29018,0.64823 -1.28125,0.59375 -0.61734,-0.034 -0.72961,-0.15321 -0.5,-0.53125 0.12219,-0.20119 0.37635,-0.33711 0.65625,-0.40625 0.13359,-0.033 0.27302,-0.0605 0.40625,-0.0625 z M 448.5,-681.5 c 0.36587,-0.0304 0.62744,0.0396 0.71875,0.21875 0.23326,0.4576 -0.93513,0.92286 -1.90625,0.75 -0.86048,-0.15319 -0.84476,-0.16748 -0.15625,-0.53125 0.28458,-0.15039 0.5706,-0.27063 0.84375,-0.34375 0.0376,-0.01 0.057,-0.0227 0.0937,-0.0312 0.13786,-0.032 0.28429,-0.0524 0.40625,-0.0625 z m 14.3125,0.25 c 0.0899,-0.0146 0.37927,0.052 0.875,0.1875 0.86804,0.23719 1.85643,0.61604 2.1875,0.84375 0.87069,0.59876 0.5593,0.60966 -0.875,0.0312 -1.55065,-0.62536 -2.32139,-1.01054 -2.1875,-1.0625 z m -6.03125,0.65625 c 0.8772,-0.028 2.00265,0.14634 3.71875,0.65625 1.69898,0.50481 1.97042,0.82043 1.71875,1.21875 -0.93657,1.24228 -2.24462,0.83292 -3.40625,0.96875 -0.30548,0.0357 -5.94465,0.51797 -6.03125,0.21875 -0.19939,-0.68909 0.19297,-0.90064 0.21875,-1.21875 0.0568,-0.7008 0.69968,-0.81966 1.0625,-1 0.59592,-0.2962 1.11537,-0.56545 1.71875,-0.71875 0.0628,-0.016 0.12228,-0.0178 0.1875,-0.0312 0.24458,-0.0505 0.5201,-0.0844 0.8125,-0.0937 z m -6.65625,0.4375 c 0.49686,0.01 1.02198,0.23658 1.15625,0.5 0.1679,0.32936 -0.11922,0.66133 -0.90625,1.0625 -1.243,0.63356 -1.48324,0.47053 -1.28125,-0.78125 0.075,-0.46484 0.19702,-0.6691 0.5,-0.75 0.0172,-0.005 0.0128,0.004 0.0312,0 0.12945,-0.0266 0.29529,-0.0353 0.5,-0.0312 z m 14.8125,1.3125 c 0.30459,-0.0591 0.88459,0.0643 1.78125,0.34375 2.04968,0.63876 2.66009,1.2078 2.03125,1.90625 -0.20785,0.23088 -0.21104,0.59125 0,0.78125 0.21103,0.18997 0.17101,0.75171 -0.0937,1.25 -0.57992,1.09146 -0.86283,1.2249 -2.28125,1.1875 -1.44946,-0.0382 -2.14262,-0.89306 -1.78125,-2.15625 0.15861,-0.55456 0.39949,-0.98169 0.5625,-0.96875 0.163,0.0129 0.0926,-0.43268 -0.15625,-0.96875 -0.38104,-0.82084 -0.44074,-1.23508 -0.0937,-1.34375 0.018,-0.006 0.0109,-0.0273 0.0312,-0.0312 z m -18.5625,0.0625 c 0.0706,-6.7e-4 0.14201,0.014 0.21875,0.0312 0.39472,0.0888 0.76331,0.27969 0.84375,0.4375 0.2097,0.41142 -1.02244,1.0088 -1.5,0.71875 -0.55606,-0.33776 -0.33092,-1.01855 0.21875,-1.15625 0.0634,-0.0159 0.14814,-0.0306 0.21875,-0.0312 z m 24.96875,0 c 0.30753,0.0269 0.66821,0.19234 1.1875,0.5 1.12151,0.66442 1.19291,0.78164 0.78125,1.25 -0.70968,0.80747 -0.80527,0.79694 -2.25,0.125 -1.23555,-0.57471 -1.31003,-0.66625 -0.90625,-1.125 0.35288,-0.40093 0.61501,-0.64593 0.90625,-0.71875 0.0936,-0.0234 0.17874,-0.0402 0.28125,-0.0312 z m -23.5,1.875 c 0.16324,-0.0324 0.33106,0.04 0.40625,0.1875 0.0917,0.17983 0.11057,0.36582 0.0312,0.40625 -0.0793,0.0404 -0.2972,-0.0331 -0.5,-0.15625 -0.20279,-0.12321 -0.22168,-0.27793 -0.0312,-0.375 0.0238,-0.0121 0.0378,-0.0242 0.0625,-0.0312 0.0108,-0.003 0.0204,-0.0291 0.0312,-0.0312 z m 10.21875,0.3125 c 0.28638,9.3e-4 0.56548,0.007 0.875,0.0312 2.86028,0.2199 0.23907,2.56185 2.15625,2.375 0.3272,-0.0319 -0.0328,0.47837 -0.75,0.59375 -0.20936,0.0337 -1.28603,0.21181 -2.40625,0.40625 -2.0149,0.34975 -3.74653,0.68382 -4.0625,-0.0625 -0.38014,-0.89796 -1.03997,-0.89132 -0.46875,-1.90625 0.18579,-0.33011 0.93785,-0.87155 2.21875,-1.1875 0.0548,-0.0135 0.13088,-0.0185 0.1875,-0.0312 0.63695,-0.14334 1.39087,-0.22156 2.25,-0.21875 z m -8.125,0.71875 c 0.3174,0.0381 0.53381,0.28377 0.71875,0.78125 0.47334,1.27333 -0.72488,2.13215 -1.53125,1.09375 -0.67657,-0.87126 -0.52337,-1.57547 0.375,-1.8125 0.029,-0.008 0.0632,-0.0246 0.0937,-0.0312 0.13342,-0.0292 0.23795,-0.044 0.34375,-0.0312 z m 27.65625,0.28125 c 0.005,-0.002 0.0258,0.002 0.0312,0 0.34559,-0.11419 2.17141,0.94558 2.40625,1.40625 0.18552,0.36398 -1.3691,0.69948 -2,0.4375 -1.12673,-0.46788 -1.57465,-0.84984 -1.21875,-1.03125 0.18469,-0.0942 0.7735,0.12047 1.3125,0.46875 0.86058,0.55604 0.61986,0.18384 -0.5,-0.78125 -0.20649,-0.17795 -0.22571,-0.40088 -0.0312,-0.5 z m -4.21875,1.21875 1.21875,0.34375 c 0.67127,0.19507 1.30926,0.64887 1.4375,1.03125 0.32344,0.96441 -0.19043,1.33398 -1.46875,1.0625 -0.98467,-0.20911 -1.08111,-0.34392 -1.125,-1.34375 l -0.0625,-1.09375 z m -26.15625,0.5 c 0.16638,0.0191 0.35178,0.0612 0.5,0.125 0.54705,0.23562 0.54869,0.34532 0,0.625 -0.36244,0.18472 -0.85275,0.15448 -1.09375,-0.0625 -0.25579,-0.2303 -0.25691,-0.49405 0,-0.625 0.0303,-0.0154 0.0564,-0.0205 0.0937,-0.0312 0.0163,-0.005 0.045,0.004 0.0625,0 0.13128,-0.0288 0.27112,-0.0503 0.4375,-0.0312 z m 14.34375,1.1875 c 1.71546,-0.007 2.53026,0.48075 2.25,1.34375 -0.0999,0.30752 -0.04,0.83256 0.125,1.15625 0.34009,0.66726 0.11666,0.78141 -2.21875,1.28125 -1.161,0.24845 -1.78738,0.1846 -2.09375,-0.21875 -0.2423,-0.31905 -0.62626,-0.64105 -0.84375,-0.71875 -0.21752,-0.0777 -0.40048,-0.67704 -0.40625,-1.34375 -0.007,-0.79513 0.0887,-1.16678 0.78125,-1.34375 0.0296,-0.008 0.062,-0.0244 0.0937,-0.0312 0.47674,-0.10282 1.21739,-0.12054 2.3125,-0.125 z m 10.03125,1.03125 c 0.29367,5e-5 0.62052,0.0303 0.96875,0.0937 1.64525,0.29975 2.22004,0.89467 1.5625,1.625 -0.69464,0.77158 -1.11568,0.82925 -2.71875,0.46875 -2.18136,-0.49053 -2.11819,-1.73133 -0.6875,-2.09375 0.0298,-0.008 0.0628,-0.0245 0.0937,-0.0312 0.23226,-0.0508 0.48758,-0.0626 0.78125,-0.0625 z m -16.53125,0.1875 c 0.0135,-0.004 0.048,0.003 0.0625,0 0.44782,-0.0968 1.32825,0.27528 1.375,0.71875 0.0297,0.2824 0.35148,0.53998 0.75,0.5625 0.65293,0.0369 0.65734,0.0544 0.0625,0.34375 -0.86269,0.41963 -2.42059,0.46351 -2.625,0.0625 -0.0883,-0.17331 0.17448,-0.40817 0.59375,-0.5 0.63109,-0.13825 0.64921,-0.21173 0.125,-0.4375 -0.34822,-0.15001 -0.58578,-0.39462 -0.53125,-0.5625 0.0299,-0.092 0.0877,-0.15699 0.1875,-0.1875 z m -4.3125,0.0937 c 0.40375,-0.0898 1.12755,0.20183 1.6875,0.84375 0.36085,0.41367 0.56256,0.91909 0.4375,1.125 -0.27748,0.45683 -1.90474,-0.35629 -2.3125,-1.15625 -0.22992,-0.45112 -0.11409,-0.70099 0.15625,-0.78125 0.0123,-0.004 0.0182,-0.0284 0.0312,-0.0312 z m 29.1875,0.34375 c 0.17698,-0.0584 0.89129,0.11925 1.625,0.375 1.18053,0.4115 1.30811,0.52585 0.9375,0.9375 -0.56634,0.62903 -0.46876,0.61888 -1.4375,0.25 -0.88039,-0.33526 -1.58686,-1.29583 -1.125,-1.53125 0.005,-0.002 -0.006,-0.0294 0,-0.0312 z m -30.4375,1.5938 c 0.0129,-0.004 0.0174,0.003 0.0312,0 0.42807,-0.0931 1.27946,0.2048 1.25,0.5625 -0.0172,0.2097 -0.16889,0.44212 -0.34375,0.53125 -0.38754,0.19756 -1.25857,-0.52621 -1.125,-0.9375 0.026,-0.08 0.0922,-0.12781 0.1875,-0.15625 z m 5.625,0.90625 c 0.12802,-0.0372 0.38085,0.006 0.65625,0.125 0.4163,0.17927 0.52931,0.35824 0.3125,0.46875 -0.39517,0.2014 -1.17366,-0.18892 -1.0625,-0.53125 0.0101,-0.0311 0.0511,-0.0501 0.0937,-0.0625 z m -2.625,0.5625 c 0.27383,0.006 0.56292,0.13477 0.75,0.375 0.21955,0.28192 0.24903,0.56373 0.0937,0.625 -0.6932,0.27352 -1.271,0.16799 -1.5,-0.28125 -0.17266,-0.33872 0.0444,-0.60832 0.375,-0.6875 0.0827,-0.0198 0.18997,-0.0332 0.28125,-0.0312 z m -2.34375,0.78125 c 0.0244,-0.005 0.0329,-0.002 0.0625,0 0.23647,0.0195 0.5075,0.17453 0.59375,0.34375 0.0863,0.16921 0.0236,0.37709 -0.15625,0.46875 -0.17983,0.0917 -0.45084,-0.0634 -0.59375,-0.34375 -0.12501,-0.24531 -0.0774,-0.43711 0.0937,-0.46875 z m 6.25,0.53125 c 0.91017,0.0426 2.32383,0.68719 2.40625,1.21875 0.0352,0.22694 -0.208,0.62311 -0.5625,0.875 -0.4965,0.35283 -0.92,0.23078 -1.78125,-0.5 -1.3915,-1.1807 -1.35132,-1.11385 -0.59375,-1.5 0.0324,-0.0166 0.0552,-0.051 0.0937,-0.0625 0.0245,-0.007 0.067,0.005 0.0937,0 0.10348,-0.0207 0.21373,-0.0373 0.34375,-0.0312 z m 9.46875,0.84375 c 0.1845,0.003 0.3126,0.0639 0.34375,0.125 0.15792,0.30987 -0.42263,0.5824 -1.90625,0.90625 -0.66259,0.14464 -1.27978,0.093 -1.375,-0.0937 -0.0893,-0.17517 0.11527,-0.35887 0.4375,-0.4375 0.0215,-0.005 0.0399,-0.0271 0.0625,-0.0312 0.36235,-0.0669 1.10158,-0.20962 1.65625,-0.34375 0.0347,-0.008 0.0908,-0.0239 0.125,-0.0312 0.25654,-0.0552 0.47175,-0.0966 0.65625,-0.0937 z m -12.40625,0.875 c 0.1897,-0.041 0.53916,0.0251 0.84375,0.15625 0.34813,0.1499 0.75948,0.62935 0.90625,1.0625 0.25453,0.75118 0.2316,0.77024 -0.59375,0.5 -0.89864,-0.29423 -1.72024,-1.43188 -1.21875,-1.6875 0.0197,-0.01 0.0354,-0.0254 0.0625,-0.0312 z m -1.0625,1.03125 c 0.0521,-0.009 0.23496,0.11962 0.5625,0.40625 0.72821,0.63723 0.87084,1.06646 0.28125,0.875 -0.18098,-0.0588 -0.47669,-0.43204 -0.65625,-0.8125 -0.15009,-0.31803 -0.23963,-0.45953 -0.1875,-0.46875 z m 8.71875,0.65625 c 0.27893,0.0229 0.48235,0.18888 0.625,0.46875 0.33059,0.64858 -0.28266,1.46264 -0.9375,1.25 -0.19037,-0.0618 -0.48182,-0.4078 -0.65625,-0.75 -0.23354,-0.45819 -0.11224,-0.67579 0.46875,-0.875 0.0322,-0.011 0.0625,-0.0226 0.0937,-0.0312 0.0293,-0.008 0.0654,-0.0253 0.0937,-0.0312 0.10638,-0.0225 0.21952,-0.0389 0.3125,-0.0312 z m 16.28125,0.59375 c 1.21797,0.009 2.40112,0.11853 2.5,0.3125 0.19047,0.37374 0.035,0.45176 -1.5,0.71875 -1.30787,0.22748 -3.92615,-0.27252 -3.78125,-0.71875 0.0165,-0.0508 0.10191,-0.0869 0.25,-0.125 0.0324,-0.008 0.0561,-0.0235 0.0937,-0.0312 0.29145,-0.0598 0.74806,-0.1019 1.25,-0.125 0.37646,-0.0173 0.78151,-0.0342 1.1875,-0.0312 z M 457,-662.375 c 0.0168,-0.005 0.0453,0.003 0.0625,0 0.53446,-0.10754 1.21724,0.2988 1.28125,0.90625 0.0642,0.60887 -0.57409,1.12657 -1.15625,0.9375 -0.58435,-0.18979 -0.91747,-1.22728 -0.53125,-1.65625 0.0902,-0.10015 0.21934,-0.15364 0.34375,-0.1875 z m 25.65625,0.375 c 0.40311,-0.002 0.54913,0.41856 0.53125,1.3125 -0.0268,1.34128 -0.93099,1.39398 -1.59375,0.0937 -0.30367,-0.59583 -0.20086,-0.86211 0.4375,-1.1875 0.16587,-0.0845 0.31119,-0.1559 0.4375,-0.1875 0.0684,-0.0171 0.12991,-0.031 0.1875,-0.0312 z m -12.5,0.0625 c 0.4909,0.01 0.89115,0.17893 0.875,0.375 -0.0467,0.56687 -1.04784,1.33404 -1.6875,1.28125 -0.48221,-0.0398 -0.55944,-0.21044 -0.34375,-0.875 0.14483,-0.44623 0.31088,-0.66563 0.625,-0.75 0.0179,-0.005 0.0435,0.004 0.0625,0 0.13267,-0.0279 0.27233,-0.0352 0.46875,-0.0312 z m -3.8125,0.15625 c 0.50546,-0.0533 0.61235,0.0944 0.5,0.59375 -0.22454,0.99787 -1.66908,1.49057 -2.0625,0.71875 -0.17715,-0.34752 0.64556,-1.08773 1.34375,-1.28125 0.0361,-0.01 0.0585,0.007 0.0937,0 0.0352,-0.007 0.0907,-0.0276 0.125,-0.0312 z M 463.9375,-661.5 c 0.27102,-0.0239 0.13708,0.14584 -0.3125,0.375 -0.44959,0.22915 -0.67853,0.26778 -0.5,0.0625 0.14507,-0.16682 0.41472,-0.34116 0.65625,-0.40625 0.0279,-0.008 0.0668,0.005 0.0937,0 0.0269,-0.005 0.0371,-0.029 0.0625,-0.0312 z m -8.8125,0.375 c 0.032,-0.0107 0.0985,0.0471 0.1875,0.125 0.21476,0.18789 0.33452,0.46097 0.28125,0.625 -0.0533,0.16402 -0.21352,0.008 -0.375,-0.34375 -0.11154,-0.24307 -0.14713,-0.38849 -0.0937,-0.40625 z m 19.28125,0.0937 c 1.31418,-0.0245 3.65673,0.69013 6.78125,2.125 2.09683,0.96292 5.33055,3.11101 5.65625,3.75 0.0841,0.16507 0.0509,0.36378 -0.0937,0.4375 -0.44625,0.22745 -4.50752,-0.22364 -5.03125,-0.5625 -0.53523,-0.34629 -4.1306,-1.05211 -8.0625,-1.5625 -4.38879,-0.56974 -4.71866,-0.94979 -2.0625,-2.4375 0.70665,-0.39579 1.4788,-0.99896 1.71875,-1.34375 0.1186,-0.17043 0.32505,-0.28017 0.59375,-0.34375 0.14555,-0.0344 0.31226,-0.059 0.5,-0.0625 z m 15.34375,0.25 c 0.26132,-0.0537 0.73955,-0.0227 1.40625,0.125 0.95885,0.2124 1.73666,0.5638 1.71875,0.78125 -0.0529,0.64245 -0.45598,0.67268 -1.9375,0.15625 -1.32094,-0.4605 -1.69472,-0.90018 -1.21875,-1.03125 0.0156,-0.004 0.0138,-0.0277 0.0312,-0.0312 z m -3.6875,0.1875 c 0.3584,-0.0938 1.22147,0.21582 3.4375,1.03125 4.0026,1.47286 5.67299,2.58542 7.21875,4.8125 0.8783,1.26541 0.92651,1.4891 0.40625,1.75 -0.84376,0.42309 -6.86858,-1.66717 -8.84375,-3.0625 -1.82815,-1.2914 -2.52093,-2.38509 -2.46875,-3.875 0.0133,-0.3789 0.0203,-0.59611 0.25,-0.65625 z m -25.6875,0.53125 c 0.50105,-10e-4 0.49461,0.50859 -0.1875,1.3125 -1.90583,2.24613 -2.02318,2.30689 -2.59375,1.1875 -0.30491,-0.59821 -0.34538,-1.02072 -0.0937,-1 0.23649,0.0195 0.54869,0.25893 0.6875,0.53125 0.15207,0.29834 0.47257,0.34035 0.78125,0.0937 0.29477,-0.23549 0.34466,-0.64324 0.125,-0.9375 -0.27558,-0.36923 -0.14912,-0.60724 0.4375,-0.90625 0.23729,-0.12098 0.42329,-0.20953 0.59375,-0.25 0.0923,-0.0219 0.17842,-0.0311 0.25,-0.0312 z m 34.71875,0.65625 c 0.33702,-0.089 1.13194,0.11806 2.375,0.625 3.77336,1.53875 4.98976,2.40081 4.96875,3.5625 -0.01,0.52743 -0.17009,1.26047 -0.34375,1.625 -0.78846,1.65484 -2.23601,0.96763 -1.71875,-0.8125 0.42877,-1.4756 0.15928,-1.80945 -0.5,-0.65625 -0.80329,1.40502 -1.21498,1.44554 -1.625,0.1875 -0.21339,-0.65469 -1.00623,-1.70981 -1.9375,-2.5625 -1.29023,-1.18135 -1.68058,-1.84684 -1.21875,-1.96875 z m -32.125,0.15625 c 0.32332,-0.0252 0.59084,0.0291 0.6875,0.21875 0.15863,0.31121 -0.0964,0.72768 -0.71875,1.125 -1.03128,0.65832 -1.92579,0.45499 -1.65625,-0.375 0.12774,-0.39341 0.71642,-0.72235 1.28125,-0.875 0.0312,-0.008 0.0316,-0.024 0.0625,-0.0312 0.11603,-0.0271 0.23598,-0.0541 0.34375,-0.0625 z m 3.875,0.34375 c 0.0427,-0.0111 0.0794,0.005 0.125,0 0.3512,-0.037 0.65079,0.18288 0.6875,0.53125 0.0732,0.69529 -0.63331,1.13685 -1.21875,0.78125 -0.52629,-0.31969 -0.23403,-1.1466 0.40625,-1.3125 z m -10.28125,1.53125 c 0.0521,-0.009 0.23496,0.11962 0.5625,0.40625 0.72823,0.63728 0.87081,1.06646 0.28125,0.875 -0.18099,-0.0588 -0.47669,-0.43204 -0.65625,-0.8125 -0.15012,-0.318 -0.23963,-0.45953 -0.1875,-0.46875 z m 5.65625,0.4375 c 0.34575,-0.0814 0.85286,0.25727 1.03125,0.875 0.25918,0.89741 -0.72901,1.63703 -1.125,0.84375 -0.16437,-0.32927 -0.28287,-0.86406 -0.25,-1.21875 0.0269,-0.29012 0.16264,-0.45737 0.34375,-0.5 z m 5,0.3125 c 0.14662,-0.007 0.28434,0.0147 0.4375,0.0312 2.04044,0.22048 8.14077,1.198 9.125,1.46875 0.5297,0.14569 1.95405,0.46678 3.15625,0.71875 1.20223,0.25195 2.2368,0.57019 2.3125,0.71875 0.52519,1.03031 -2.53323,1.80118 -6.21875,1.5625 -1.69822,-0.10997 -4.90363,-0.1772 -7.125,-0.15625 -2.22138,0.021 -4.11578,-0.078 -4.1875,-0.21875 -0.12191,-0.23922 0.93021,-2.86718 1.53125,-3.8125 0.065,-0.10223 0.229,-0.16272 0.4375,-0.21875 0.0335,-0.009 0.089,-0.0237 0.125,-0.0312 0.12595,-0.0265 0.25963,-0.0556 0.40625,-0.0625 z m 39.21875,0 c 0.4901,-0.022 0.84047,0.0965 0.75,0.375 -0.0614,0.18916 -0.42245,0.27526 -0.8125,0.1875 -0.48499,-0.10914 -0.65918,-0.0322 -0.53125,0.21875 0.19686,0.38621 0.005,0.52149 -0.8125,0.59375 -0.73545,0.065 -0.54554,-0.67957 0.28125,-1.09375 0.19059,-0.0955 0.39213,-0.17016 0.59375,-0.21875 0.18002,-0.0434 0.36788,-0.0552 0.53125,-0.0625 z m 3.125,0.28125 c 0.0667,0.004 0.13955,0.0368 0.21875,0.0625 0.35451,0.11514 0.46546,0.2794 0.3125,0.53125 -0.1254,0.20644 -0.40538,0.28965 -0.625,0.15625 -0.42521,-0.25826 -0.37641,-0.63718 -0.0625,-0.71875 0.0523,-0.0136 0.0896,-0.0352 0.15625,-0.0312 z m -50.1875,0.46875 c 0.009,-0.002 0.0225,10e-4 0.0312,0 0.26227,-0.0409 0.58485,0.17958 0.84375,0.6875 0.24032,0.47149 0.19942,0.92793 -0.0937,1.15625 -0.67772,0.52777 -1.23939,0.0956 -1.21875,-0.9375 0.0104,-0.51973 0.19886,-0.83473 0.4375,-0.90625 z m 55.46875,0.125 c 0.005,-0.002 0.0264,8.7e-4 0.0312,0 0.0722,-0.0131 0.12823,0.0724 0.21875,0.25 0.1312,0.25738 0.17984,0.8601 0.0937,1.34375 -0.15346,0.86211 -0.17343,0.86429 -0.53125,0.1875 -0.20076,-0.37971 -0.24938,-0.98239 -0.0937,-1.34375 0.11456,-0.26602 0.20363,-0.40936 0.28125,-0.4375 z m -3.15625,0.4375 c 0.11393,-0.0284 0.24552,0.0572 0.34375,0.25 0.14295,0.28036 0.11733,0.59584 -0.0625,0.6875 -0.17981,0.0916 -0.41375,0.013 -0.5,-0.15625 -0.0862,-0.16925 -0.0607,-0.45342 0.0625,-0.65625 0.0385,-0.0634 0.10447,-0.11212 0.15625,-0.125 z m -3.0625,0.625 c 0.0659,-0.0179 0.11398,-0.0239 0.1875,0 0.16746,0.0544 0.21939,0.33437 0.125,0.625 -0.11513,0.35448 -0.2794,0.46547 -0.53125,0.3125 -0.35752,-0.21714 -0.13682,-0.84086 0.21875,-0.9375 z m -2.5625,1.03125 c 0.0118,-0.003 0.0191,0.002 0.0312,0 0.0847,-0.015 0.18556,0.004 0.28125,0.0625 0.22236,0.13506 0.43584,0.50029 0.46875,0.8125 0.0764,0.72523 -0.43034,0.98477 -0.96875,0.5 -0.43458,-0.39128 -0.2212,-1.25752 0.1875,-1.375 z m 8.28125,0.1875 c 0.12565,-0.022 0.18688,0.135 0.21875,0.4375 0.0385,0.36488 0.0812,0.72667 0.125,0.8125 0.0437,0.0858 -0.1132,0.11531 -0.375,0.0937 -0.0753,-0.006 -0.15119,0.0148 -0.1875,0.0312 -0.15783,-0.25061 -0.31047,-0.53782 -0.46875,-0.84375 0.0697,-0.0521 0.16606,-0.10464 0.25,-0.1875 0.20907,-0.20632 0.33978,-0.32666 0.4375,-0.34375 z m -1.84375,0.0625 c 0.18898,-0.0359 0.40553,0.0971 0.53125,0.34375 0.11991,0.23522 0.27947,0.32711 0.46875,0.25 0.4115,0.79296 0.80656,1.396 1.1875,1.875 -0.1652,-0.0718 -0.4535,-0.28916 -0.8125,-0.625 -0.43109,-0.40326 -0.9933,-0.93778 -1.28125,-1.1875 -0.31113,-0.26977 -0.40258,-0.51534 -0.1875,-0.625 0.0249,-0.0127 0.0667,-0.0261 0.0937,-0.0312 z m -25.84375,0.0625 c 1.06695,-0.0305 2.41035,0.18862 3.90625,0.625 1.19756,0.34936 3.28167,0.86833 4.65625,1.15625 2.55248,0.53464 3.64456,0.76667 2.53125,1.25 -2.47231,1.07333 -3.39528,1.38534 -7.9375,2.71875 -4.26391,1.19742 -5.81058,1.47851 -8.875,1.46875 -4.41465,-0.0141 -5.79067,-0.30125 -5.875,-1.15625 -0.12234,-1.24027 1.26017,-1.40699 2.1875,-2.03125 1.676,-1.12827 2.68048,-1.42463 4.40625,-1.65625 1.87601,-0.25179 2.21794,-0.37839 2.34375,-0.9375 0.14016,-0.62282 0.66384,-1.06744 1.46875,-1.28125 0.0368,-0.01 0.0558,0.009 0.0937,0 0.0368,-0.009 0.0871,-0.0235 0.125,-0.0312 0.29349,-0.0603 0.6131,-0.11484 0.96875,-0.125 z m 16.53125,0.15625 c 0.0104,-0.004 0.0208,0.002 0.0312,0 0.15731,-0.0296 0.33456,0.11227 0.4375,0.46875 0.0992,0.34335 -0.0484,0.8012 -0.34375,1.03125 -0.46,0.3582 -0.54616,0.27589 -0.53125,-0.46875 0.0118,-0.59206 0.19192,-0.95972 0.40625,-1.03125 z M 462.5,-653 c 0.0658,-0.0179 0.14524,-0.0239 0.21875,0 0.16746,0.0544 0.21939,0.33437 0.125,0.625 -0.11514,0.3545 -0.2794,0.46547 -0.53125,0.3125 -0.35754,-0.21716 -0.16808,-0.84084 0.1875,-0.9375 z m -3.34375,0.0312 c 0.61729,-0.14231 1.03414,0.26155 0.875,0.96875 -0.16777,0.74569 -1.28817,1.47689 -1.53125,1 -0.37599,-0.73757 -0.23826,-1.56299 0.3125,-1.84375 0.10043,-0.0512 0.18828,-0.0675 0.28125,-0.0937 0.0203,-0.006 0.0426,-0.0267 0.0625,-0.0312 z m 40.28125,1.03125 c 0.0963,-0.0222 0.22703,-0.009 0.40625,0.0312 0.38132,0.0858 0.83331,0.42297 1,0.75 0.40752,0.79948 0.0544,1.26307 -0.8125,1.09375 -0.53139,-0.10382 -0.74249,-0.37096 -0.8125,-1.0625 -0.0533,-0.52671 0.007,-0.76372 0.21875,-0.8125 z m -31.8125,0.65625 c 2.95299,-0.0477 5.68108,0.18537 7.65625,0.375 l 2.09375,0.1875 -2.6875,1.25 c -1.58839,0.73664 -3.64412,1.36861 -5.125,1.59375 -1.3667,0.2078 -3.53254,0.79226 -4.8125,1.28125 -2.02015,0.77175 -2.29397,0.71547 -2.6875,0.21875 -0.63919,-0.80676 -1.10306,-4.1817 0.0937,-4.46875 0.019,-0.005 0.0114,0.003 0.0312,0 1.79515,-0.26936 3.6657,-0.40887 5.4375,-0.4375 z m 44.84375,0.125 c 0.22562,-0.063 0.50804,-0.018 1,0.125 0.62288,0.18097 1.4496,0.71545 1.84375,1.15625 0.59704,0.66768 0.91548,1.26383 0.59375,2.0625 -0.0318,-0.0603 -0.063,-0.13266 -0.0937,-0.1875 -0.15312,-0.27285 -0.27722,-0.47432 -0.4375,-0.625 -0.0734,-0.0691 -0.16757,-0.11225 -0.25,-0.15625 -0.005,-0.23305 -0.1073,-0.49335 -0.28125,-0.65625 -0.45283,-0.42406 -1.16814,-0.30283 -1.5625,0.125 -0.22107,0.23979 -0.32796,0.54522 -0.34375,0.84375 -0.49772,0.17504 -1.09224,0.37724 -1.84375,0.625 -10e-6,-2e-5 0.14804,-0.278 0.1875,-0.40625 0.1,-0.32504 0.1875,-1.09375 0.1875,-1.09375 0.0404,-0.24499 0.15044,-0.82437 0.40625,-1.25 0.20205,-0.3362 0.36811,-0.49954 0.59375,-0.5625 z m -4.8125,0.6875 c 0.0664,-0.0257 0.1709,0.13526 0.34375,0.46875 0.20901,0.40322 0.24233,0.81456 0.0625,0.90625 -0.40966,0.2088 -0.58655,-0.15728 -0.5,-1 0.0237,-0.23067 0.0421,-0.355 0.0937,-0.375 z m -4.875,0.0312 c 0.0788,-0.0171 0.22303,0.0551 0.40625,0.21875 0.28259,0.25242 0.52852,0.70874 0.5625,1.03125 0.0659,0.62576 -0.37995,1.03172 -0.84375,0.75 -0.15466,-0.0939 -0.2942,-0.64858 -0.28125,-1.21875 0.0123,-0.54032 0.041,-0.75622 0.15625,-0.78125 z m -43.34375,0.25 c 0.14354,-0.0385 0.32652,0.0659 0.5,0.40625 0.17974,0.35263 0.19572,0.96189 0.0312,1.34375 -0.26258,0.60968 -0.36424,0.55946 -0.6875,-0.3125 -0.27476,-0.7412 -0.11775,-1.36404 0.15625,-1.4375 z m 54.53125,0.71875 c 0.25648,-0.0526 0.54808,-0.002 0.75,0.1875 0.11172,0.10459 0.16436,0.25907 0.1875,0.40625 -0.0319,-0.008 -0.0604,-0.0262 -0.0937,-0.0312 -0.10204,-0.0154 -0.19657,-0.01 -0.3125,0 -0.1421,-0.11167 -0.35045,-0.0882 -0.46875,0.0312 -0.0159,0.016 -0.0187,0.0451 -0.0312,0.0625 -0.23628,0.0625 -0.52765,0.14039 -0.84375,0.25 0.0283,-0.22239 0.11773,-0.41634 0.28125,-0.59375 0.14139,-0.1534 0.33179,-0.27159 0.53125,-0.3125 z m -56.59375,0.5 c 0.0453,-0.0109 0.10601,-0.0163 0.15625,0 0.32381,0.10516 0.47374,0.58647 0.46875,1.4375 -0.008,1.44644 -0.14638,1.63409 -0.78125,1.0625 -0.55628,-0.50086 -0.37827,-2.37236 0.15625,-2.5 z m 48.53125,0 c 0.30027,-0.0316 0.51743,0.13205 0.5,0.34375 -0.04,0.48559 -0.90766,0.9589 -1.09375,0.59375 -0.21258,-0.41697 -0.0273,-0.79609 0.4375,-0.90625 0.0481,-0.0114 0.10249,-0.0256 0.15625,-0.0312 z m -6.6875,0.28125 c 0.20153,-0.0424 0.43823,0.10239 0.625,0.46875 0.18333,0.35966 0.20047,0.72624 0.0312,0.8125 -0.43888,0.22369 -1.0418,-0.21144 -1,-0.71875 0.0281,-0.3408 0.16593,-0.52515 0.34375,-0.5625 z m 15.125,0 c 0.0197,-0.003 0.0435,0.003 0.0625,0 10e-4,0.0169 -0.0218,0.0221 -0.0312,0.0312 -0.0108,7.7e-4 -0.0313,0.0312 -0.0312,0.0312 l -0.0625,0 c -0.003,-0.007 3.3e-4,-0.0222 0,-0.0312 0.0207,-0.004 0.0426,-0.0277 0.0625,-0.0312 z m 0.25,0 c 0.0653,-0.002 0.13146,-0.008 0.1875,0 0.044,0.007 0.0851,0.0187 0.125,0.0312 -0.0189,0.0942 -0.0541,0.17555 -0.125,0.25 -0.14975,0.15721 -0.40521,0.21517 -0.5625,0.0625 -0.0721,-0.07 -0.1195,-0.19083 -0.0937,-0.28125 0.007,-0.002 0.0243,0.002 0.0312,0 0.005,-0.001 0.026,10e-4 0.0312,0 0.003,0.0439 10e-4,0.093 0.0312,0.125 0.0437,0.0466 0.10233,0.0661 0.15625,0.0625 0.0539,-0.004 0.11722,-0.0249 0.15625,-0.0625 0.057,-0.055 0.0676,-0.11917 0.0625,-0.1875 z m -0.6875,0.125 c -9.4e-4,0.13246 0.0601,0.25044 0.15625,0.34375 0.25046,0.24306 0.65332,0.20145 0.875,-0.0312 0.0868,-0.0912 0.12547,-0.2017 0.15625,-0.3125 0.0404,0.0273 0.0852,0.0563 0.125,0.0937 0.13543,0.12733 0.2583,0.29884 0.40625,0.5625 0.0521,0.093 0.13103,0.20126 0.1875,0.3125 -0.21357,0.38921 -0.56632,0.61792 -0.96875,0.65625 -0.41137,0.0392 -0.88787,-0.10857 -1.25,-0.4375 -0.27004,-0.24532 -0.41879,-0.585 -0.4375,-0.9375 0.006,-0.002 0.0249,-0.029 0.0312,-0.0312 0.28149,-0.098 0.50683,-0.15825 0.71875,-0.21875 z m -16.34375,0.59375 c 0.0996,-0.009 0.15775,0.0132 0.1875,0.0312 0.15664,0.0951 0.18912,0.4851 0.0625,0.875 -0.21283,0.65534 -1.9275,1.87045 -6.84375,4.84375 -5.56804,3.36748 -6.56138,3.9986 -7.59375,4.90625 -0.62578,0.55018 -1.98612,1.69262 -3.03125,2.53125 -1.04514,0.8386 -2.82018,2.6636 -4.28125,3.5625 -1.84024,1.13218 -3.86266,1.92325 -3.1875,-2.40625 0.39256,-2.51737 2.61288,-3.8729 4.75,-5.09375 1.26332,-0.72168 2.64034,-1.59326 3.03125,-1.9375 2.28677,-2.01375 5.52349,-3.9878 7.15625,-4.375 0.94318,-0.22369 2.26475,-0.60792 2.9375,-0.84375 2.74164,-0.9612 4.89787,-1.65249 6.0625,-1.9375 0.0662,-0.0162 0.12783,-0.0176 0.1875,-0.0312 0.0522,-0.0119 0.10912,-0.0213 0.15625,-0.0312 0.16497,-0.0347 0.3066,-0.0848 0.40625,-0.0937 z m 4.1875,0.0312 c 0.15411,-0.04 0.26704,0.0743 0.25,0.28125 -0.0195,0.23646 -0.10819,0.45958 -0.1875,0.5 -0.0793,0.0404 -0.22081,-0.0702 -0.3125,-0.25 -0.0917,-0.17981 -0.003,-0.40293 0.1875,-0.5 0.0238,-0.0121 0.0405,-0.0255 0.0625,-0.0312 z m 1.40625,1.5 c 0.0233,-0.007 0.0642,-0.002 0.0937,0 0.23648,0.0195 0.52416,0.24087 0.65625,0.5 0.13207,0.25916 0.0861,0.56459 -0.0937,0.65625 -0.17983,0.0917 -0.46751,-0.16097 -0.65625,-0.53125 -0.16514,-0.32399 -0.16331,-0.57805 0,-0.625 z m -31.875,0.15625 c 0.4618,-0.007 0.93494,0.01 1.4375,0.0312 1.75376,0.0745 1.72794,1.02174 0.0937,2.125 -0.8006,0.54049 -2.35555,1.60862 -3.4375,2.375 -1.08197,0.76637 -2.37334,1.72769 -2.875,2.125 -0.7555,0.59838 -0.98002,0.57255 -1.4375,0.125 -0.53375,-0.52221 -0.9665,-0.70994 -1.84375,-1.53125 -1.25191,-1.17212 -0.11273,-3.73075 4.15625,-4.78125 0.0889,-0.0219 0.1896,-0.0419 0.28125,-0.0625 1.0311,-0.23124 2.23959,-0.38399 3.625,-0.40625 z m 27.46875,0.3125 c 1.22973,0.93389 4.01422,1.47948 1.53125,3.34375 -2.0997,1.5765 -5.13964,4.49803 -6.15625,5.3125 -7.90423,6.33262 -6.11229,3.81726 -12.8125,9.78125 -2.466,2.19498 -2.92869,-1.98853 0.0937,-5.53125 1.13475,-1.33012 4.46678,-3.42903 6.46875,-4.75 2.09996,-1.38561 6.64957,-4.80264 7.59375,-5.6875 0.45995,-0.43106 1.39409,-1.15848 2.0625,-1.625 l 1.21875,-0.84375 z m -38.34375,0.1875 c 0.31154,-0.0776 0.80922,0.12571 1,0.5 0.13211,0.25911 0.0917,0.56171 -0.0937,0.65625 -0.39144,0.19951 -1.28812,-0.50017 -1.15625,-0.90625 0.0395,-0.12161 0.12809,-0.21962 0.25,-0.25 z m -2.375,0.90625 c 0.0174,-0.005 0.0135,0.004 0.0312,0 0.12416,-0.0272 0.27515,-0.0113 0.40625,0.0312 0.3351,0.10879 0.39469,0.47457 0.21875,1.125 -0.38719,1.43144 -1.12597,1.59219 -1.40625,0.3125 -0.14401,-0.6575 0.2512,-1.32182 0.75,-1.46875 z m 18.71875,0.3125 c 1.05717,-0.0339 2.28125,0.0937 2.28125,0.0937 3.97473,-0.0665 3.95233,0.25082 -0.1875,2.40625 -1.67518,0.87217 -2.90885,1.73285 -3.34375,2.34375 -0.37817,0.53119 -0.90933,1.07557 -1.1875,1.21875 -0.27816,0.14316 -0.56878,0.46814 -0.65625,0.71875 -0.0875,0.25056 -0.92169,1.031 -1.6875,1.875 -0.95864,1.0565 -1.79466,1.78912 -2.59375,1.21875 -0.86963,-0.62071 -1.57282,-0.43733 -2.53125,-1.625 -0.58283,-0.72222 -0.45691,-1.50594 -0.1875,-1.8125 0.22768,-0.25907 2.34058,-1.7712 4.6875,-3.375 0,-1e-5 2.80376,-2.43607 4.28125,-2.90625 0.0306,-0.01 0.0605,-0.0226 0.0937,-0.0312 0.0323,-0.008 0.0592,-0.0238 0.0937,-0.0312 0.26812,-0.0574 0.58511,-0.0825 0.9375,-0.0937 z m 28.875,0.46875 c 0.0119,-0.004 0.0181,0.002 0.0312,0 0.21037,-0.0317 0.42247,0.0412 0.46875,0.1875 0.18041,0.57059 -0.30037,0.92051 -0.5625,0.40625 -0.14323,-0.28096 -0.11549,-0.53672 0.0625,-0.59375 z M 460,-642.625 c 0.52698,0.063 1.14161,0.76803 1.21875,1.5 0.13338,1.2659 -0.86964,1.07804 -1.5625,-0.28125 -0.29878,-0.58612 -0.29637,-1.00518 0,-1.15625 0.0352,-0.0179 0.0876,-0.0217 0.125,-0.0312 0.0701,-0.0179 0.14347,-0.0403 0.21875,-0.0312 z m -1.84375,2.15625 c 0.009,-0.002 0.0211,0.002 0.0312,0 0.26298,-0.0397 0.67779,0.33423 0.9375,0.84375 0.2597,0.5095 0.34284,1.09174 0.15625,1.28125 -0.23028,0.23388 -0.55395,-0.03 -0.96875,-0.84375 -0.40185,-0.78837 -0.44842,-1.21205 -0.15625,-1.28125 z M 457.375,-639 c 0.0208,-0.008 0.088,0.017 0.15625,0.0937 0.24265,0.27279 0.48431,0.79963 0.5625,1.15625 0.0782,0.35658 -0.11667,0.12943 -0.4375,-0.5 -0.2306,-0.45241 -0.33453,-0.73074 -0.28125,-0.75 z m 5.6875,0.125 c 0.12539,-0.0345 0.32804,0.0301 0.65625,0.1875 0.43451,0.20835 0.76662,0.54836 0.75,0.75 -0.0466,0.5653 -0.84387,0.83132 -1.28125,0.4375 -0.21541,-0.19397 -0.34993,-0.63039 -0.3125,-0.96875 0.0283,-0.25559 0.0621,-0.37171 0.1875,-0.40625 z m -2,1.46875 c 0.1978,0.053 0.37054,0.28329 0.53125,0.71875 0.39171,1.0613 -0.12462,1.83804 -0.8125,1.21875 -0.65006,-0.58531 -0.68164,-1.55938 -0.0625,-1.875 0.0468,-0.0238 0.11326,-0.0194 0.15625,-0.0312 0.0752,-0.0207 0.12157,-0.0489 0.1875,-0.0312 z m 3.15625,1.1875 c 0.34622,0.0594 0.71736,0.31812 0.9375,0.75 0.46943,0.92098 -0.007,1.35481 -0.96875,0.84375 -0.64627,-0.3434 -0.82225,-0.63387 -0.71875,-1.09375 0.0605,-0.26893 0.224,-0.41443 0.4375,-0.46875 0.10189,-0.0259 0.19709,-0.0511 0.3125,-0.0312 z m -4.84375,0.3125 c 0.0254,-0.005 0.0797,0.0388 0.15625,0.125 0.24505,0.27588 0.44546,0.70174 0.46875,0.96875 0.0233,0.267 -0.16918,0.0429 -0.4375,-0.5 -0.1845,-0.37323 -0.24349,-0.5824 -0.1875,-0.59375 z m 2.59375,1.84375 c 0.19053,-0.0379 0.65878,0.22749 1.0625,0.625 0.93986,0.92538 0.81293,1.86837 -0.1875,1.4375 -0.71845,-0.30943 -1.38084,-1.78931 -0.90625,-2.03125 0.005,-0.003 0.0255,-0.0293 0.0312,-0.0312 z m 5.40625,0.71875 c 0.0954,-0.002 0.19927,0.013 0.3125,0.0312 0.51116,0.0825 0.86473,0.38733 0.90625,0.78125 0.0955,0.90651 -0.79247,1.21658 -1.46875,0.53125 -0.60674,-0.61493 -0.54393,-1.17242 0,-1.3125 0.0761,-0.0196 0.15459,-0.0297 0.25,-0.0312 z m -6.5,0.5625 c 0.048,-0.005 0.24222,0.19231 0.625,0.59375 0.80445,0.84362 0.91689,1.18613 0.34375,1 -0.18101,-0.0588 -0.49739,-0.49629 -0.71875,-0.96875 -0.19756,-0.4217 -0.29801,-0.61973 -0.25,-0.625 z m 8.9375,0.40625 c 0.084,-0.0166 0.18507,2e-5 0.28125,0.0312 0.29891,0.0971 0.61353,0.47945 0.71875,0.84375 0.25173,0.8717 -0.60756,1.51591 -1.25,0.9375 -0.58269,-0.52464 -0.3379,-1.69645 0.25,-1.8125 z m -5.1875,0.875 c 0.46113,-0.10265 1.53749,0.42805 1.78125,0.90625 0.19146,0.3756 -1.4663,0.97684 -1.8125,0.65625 -0.53263,-0.4932 -0.54484,-1.26944 -0.0312,-1.53125 0.0248,-0.0127 0.0318,-0.0244 0.0625,-0.0312 z m -1.5,1.3125 c 0.10651,-0.0254 0.33382,0.11159 0.59375,0.375 0.31988,0.32418 0.54406,0.70801 0.5,0.84375 -0.0441,0.13573 -0.33636,-0.0195 -0.65625,-0.34375 -0.31991,-0.32421 -0.54409,-0.70798 -0.5,-0.84375 0.008,-0.0255 0.0379,-0.0254 0.0625,-0.0312 z m 4.5,0.0937 c 0.22532,-0.0393 0.34961,0.15567 0.5,0.59375 0.18695,0.54457 0.065,0.98167 -0.40625,1.3125 -0.58814,0.41288 -0.76665,0.36718 -1,-0.3125 -0.18695,-0.5446 -0.0337,-0.98165 0.4375,-1.3125 0.18379,-0.12902 0.32125,-0.21698 0.4375,-0.25 0.016,-0.005 0.0162,-0.0286 0.0312,-0.0312 z m 3.875,0.53125 c 0.0391,-0.0107 0.082,0.005 0.125,0 0.46251,-0.0487 0.64015,0.14796 0.71875,0.8125 0.13107,1.10796 -0.73457,1.87599 -1.15625,1.03125 -0.42964,-0.86066 -0.27449,-1.68397 0.3125,-1.84375 z m -6.09375,1.78125 c 0.0109,-0.006 0.0198,0.004 0.0312,0 0.0108,-0.004 0.0201,0.002 0.0312,0 0.16762,-0.0291 0.37914,0.10665 0.5,0.34375 0.13747,0.26976 0.19568,0.52648 0.125,0.5625 -0.0707,0.036 -0.3215,-0.12677 -0.5625,-0.34375 -0.24099,-0.21699 -0.29918,-0.47371 -0.125,-0.5625 z m 3.96875,0.1875 c 0.17673,0.0209 0.27334,0.16241 0.34375,0.40625 0.18877,0.65363 -0.46812,1.41177 -1.0625,1.21875 -0.77563,-0.25189 -0.76808,-0.99881 0.0312,-1.40625 0.15581,-0.0795 0.29169,-0.1548 0.40625,-0.1875 0.0215,-0.006 0.0423,0.004 0.0625,0 0.0757,-0.0167 0.15984,-0.0382 0.21875,-0.0312 z m 7.6875,1 c 0.2746,-0.01 0.57484,0.0571 0.84375,0.21875 0.38595,0.23195 0.67857,0.55371 0.625,0.71875 -0.15271,0.47017 -1.29846,0.95902 -1.46875,0.625 -0.0841,-0.16517 -0.3396,-0.48994 -0.59375,-0.71875 -0.38043,-0.34253 -0.15099,-0.66166 0.28125,-0.78125 0.021,-0.006 0.0406,-0.0264 0.0625,-0.0312 0.0821,-0.0182 0.15847,-0.028 0.25,-0.0312 z m -9.96875,0.4375 c 0.0108,-0.003 0.0204,0.002 0.0312,0 0.16344,-0.0324 0.33106,0.04 0.40625,0.1875 0.0917,0.17985 0.11054,0.36581 0.0312,0.40625 -0.0793,0.0404 -0.32845,-0.0331 -0.53125,-0.15625 -0.20279,-0.12317 -0.19045,-0.30915 0,-0.40625 0.0238,-0.0121 0.0378,-0.0242 0.0625,-0.0312 z m 7.5625,1.09375 c 0.22564,-0.0587 0.5418,0.0684 0.9375,0.34375 0.53341,0.37122 0.57936,0.53494 0.21875,0.71875 -0.56344,0.28721 -1.67722,-0.14422 -1.53125,-0.59375 0.0806,-0.24835 0.19951,-0.42315 0.375,-0.46875 z m -1.28125,1.3125 c 0.33366,-0.0352 0.65148,-0.008 0.6875,0.0625 0.13496,0.26477 -0.58712,0.43157 -0.9375,0.21875 -0.16984,-0.10314 -0.11245,-0.19658 0.0937,-0.25 0.0476,-0.0124 0.091,-0.0244 0.15625,-0.0312 z"
           transform="matrix(36.334408,9.1052719,-9.1052719,36.334408,-9829.4465,21480.409)"
           id="path3481" />
      </g>
      <path
         inkscape:connector-curvature="0"
         sodipodi:nodetypes="csssssssc"
         id="path6514"
         d="m 1192.9469,1024.908 c -18.7609,-12.9079 -82.2242,-42.58867 -164.4815,-76.92537 -72.46976,-30.2511 -203.05995,-65.96531 -206.007,-73.64518 -3.12818,-8.15186 10.1906,-46.86876 42.00666,-48.53767 43.42125,-2.27765 10.97651,-29.46872 36.94441,-32.89638 32.19538,-4.24966 211.83883,22.76003 334.51133,178.57583 14.5772,18.51563 54.2009,50.50547 85.5955,89.17417 31.3946,38.6687 54.5601,84.0162 36.2208,66.8769 -31.5903,-29.5232 -138.3445,-86.3964 -164.7902,-102.6223 z"
         style="fill:#ff7f2a;fill-opacity:1;fill-rule:nonzero;stroke:#020202;stroke-width:0;stroke-linecap:round;stroke-linejoin:round;stroke-miterlimit:4;stroke-opacity:1;stroke-dasharray:none;stroke-dashoffset:0;marker:none;visibility:visible;display:inline;overflow:visible;enable-background:accumulate" />
      <path
         inkscape:connector-curvature="0"
         sodipodi:nodetypes="csssssss"
         id="path6516"
         d="m 523.64772,702.08761 c -57.35408,8.82448 -100.76657,23.46776 -41.5346,81.1938 28.28321,27.56413 23.5391,55.72702 25.89029,59.38277 3.88222,6.03633 49.138,0.7793 110.6551,3.48693 69.99188,3.08065 76.60957,3.409 113.84994,10.71829 53.04374,10.41106 49.93588,9.79038 59.23553,-40.04021 4.62905,-24.80393 -13.99516,-48.87162 -37.77701,-66.20465 -80.14057,-58.40918 -106.9589,-67.51711 -230.31925,-48.53693 z"
         style="fill:#ff7f2a;fill-opacity:1;fill-rule:nonzero;stroke:#020202;stroke-width:0;stroke-linecap:round;stroke-linejoin:round;stroke-miterlimit:4;stroke-opacity:1;stroke-dasharray:none;stroke-dashoffset:0;marker:none;visibility:visible;display:inline;overflow:visible;enable-background:accumulate" />
    </g>
    <g
       id="g10063"
       transform="matrix(-0.02171088,6.3897151e-4,0.0028043,0.02622214,349.70631,386.07419)">
      <path
         inkscape:connector-curvature="0"
         id="path10065"
         d="m 3122.3034,5451.8105 c -4.725,-4.7251 -49.2918,-13.033 -85.0664,-15.8578 -29.4414,-2.3247 -44.3409,-5.2161 -54.5661,-10.5889 -7.7365,-4.065 -17.0772,-7.391 -20.7569,-7.391 -3.6797,0 -10.9314,-2.9265 -16.1152,-6.5034 -5.1839,-3.5768 -18.5228,-9.0243 -29.6421,-12.1054 -11.5326,-3.1958 -30.029,-12.604 -43.0605,-21.903 -12.5641,-8.9654 -24.4081,-16.3009 -26.3206,-16.3009 -1.9124,0 -10.5228,-5.3798 -19.1341,-11.9551 -9.2381,-7.054 -23.2798,-13.5898 -34.2506,-15.9427 -10.2263,-2.1932 -31.7724,-10.6232 -47.88,-18.7333 -16.1077,-8.1101 -42.7289,-19.2979 -59.1583,-24.8616 -16.4295,-5.5637 -33.7181,-12.636 -38.4193,-15.7164 -10.454,-6.8498 -25.452,-7.5901 -39.1144,-1.931 -10.934,4.529 -13.8663,4.0875 -67.9878,-10.2364 -20.3914,-5.3968 -34.4157,-7.1758 -44.385,-5.6303 -23.9729,3.7165 -49.4525,18.8502 -68.8627,40.9013 l -18.0104,20.4609 -26.061,-1.6724 c -19.4507,-1.2482 -32.7975,0.1819 -52.6203,5.6385 -14.6077,4.021 -41.3694,9.9715 -59.4703,13.2234 -21.9836,3.9493 -37.2997,8.8908 -46.1293,14.8826 l -13.2184,8.9703 -33.7635,-10.9824 c -57.041,-18.5537 -96.1632,-25.4741 -144.0095,-25.4741 -39.5644,0 -43.67,-0.6249 -49.8774,-7.5917 -9.3077,-10.4464 -24.5266,-16.3096 -49.7365,-19.1618 -17.0022,-1.9236 -22.0442,-3.9518 -24.703,-9.937 -3.5185,-7.9205 -6.4728,-9.6772 -45.4611,-27.0308 -27.5463,-12.2607 -36.3284,-13.2371 -47.6616,-5.299 -7.1996,5.0429 -8.1171,5.0291 -10.105,-0.1513 -1.2025,-3.1336 -8.7802,-9.0558 -16.8393,-13.1603 -22.263,-11.3384 -36.4614,-23.2834 -50.6489,-42.6107 -12.2428,-16.6782 -12.7884,-18.6086 -10.9589,-38.7845 1.5986,-17.6296 8.292,-34.3116 39.4427,-98.3033 35.2653,-72.4443 45.4643,-101.926 35.2608,-101.926 -2.3147,0 -16.813,15.2193 -32.2185,33.8206 -77.2086,93.2258 -99.2801,109.0831 -163.0932,117.1738 -22.2383,2.8196 -28.5714,2.3369 -42.8894,-3.2689 -9.2392,-3.6174 -27.9834,-9.1129 -41.654,-12.2123 -13.6705,-3.0995 -34.4427,-9.5112 -46.1603,-14.2482 -11.7176,-4.7372 -28.4951,-9.7871 -37.2833,-11.2223 -8.7883,-1.4352 -20.2199,-5.6103 -25.4037,-9.2781 -5.1839,-3.6677 -14.4865,-6.6686 -20.6725,-6.6686 -6.186,0 -17.9233,-3.8893 -26.0828,-8.6429 -8.1594,-4.7536 -22.8248,-10.609 -32.5895,-13.012 -12.15,-2.9901 -22.0202,-8.5994 -31.2702,-17.7711 -7.4339,-7.3709 -21.0156,-16.2015 -30.1817,-19.6234 -24.546,-9.1635 -32.2539,-15.0353 -40.2112,-30.6329 -3.9369,-7.7171 -16.4568,-24.0264 -27.8219,-36.2431 -11.3653,-12.2167 -25.053,-28.8444 -30.4174,-36.9505 -8.7914,-13.2845 -12.624,-15.614 -38.854,-23.6147 -35.3939,-10.7958 -44.473,-19.1017 -44.473,-40.6861 0,-11.2904 -3.7482,-22.2762 -13.9293,-40.8268 -7.6612,-13.959 -23.0112,-49.2481 -34.1114,-78.4204 l -20.182,-53.0404 6.1622,-24.0495 c 6.7707,-26.4244 7.8363,-18.5681 -16.4221,-121.0817 -3.6383,-15.3751 -12.6681,-39.343 -20.06606,-53.2619 -12.0132,-22.6018 -15.5283,-26.3226 -32.8844,-34.8083 -12.491,-6.1071 -28.32022,-18.8939 -44.31012,-35.7937 -25.4107,-26.8568 -77.9948,-62.8528 -106.2208,-72.7126 -20.4231,-7.1341 -26.8141,-10.9428 -46.9784,-27.9967 -20.9613,-17.728 -31.9216,-22.6584 -50.3696,-22.6584 -9.2403,0 -14.4193,-2.0839 -17.5206,-7.0499 -2.4215,-3.8775 -11.5423,-8.8477 -20.2683,-11.0449 -8.7261,-2.1973 -24.1953,-10.2098 -34.3761,-17.8057 -10.1807,-7.5958 -19.8582,-13.8106 -21.5056,-13.8106 -6.0686,0 -54.9389,-52.678 -75.0322,-80.8783 -11.3971,-15.9954 -26.9762,-34.0359 -34.6203,-40.0902 -7.644,-6.0542 -13.8999,-12.8707 -13.9019,-15.1478 -0.002,-2.2771 5.0659,-22.4492 11.2619,-44.8271 9.485,-34.2567 13.4126,-43.0164 24.8517,-55.4263 22.3164,-24.2105 68.3892,-44.8656 148.9573,-66.78 101.1283,-27.5067 149.1179,-32.3055 320.92088,-32.0912 188.5256,0.2353 250.6059,7.1888 443.8492,49.7152 233.2006,51.3197 324.1149,81.3343 555.6993,183.4599 117.8084,51.9519 123.3257,53.8409 142.321,48.726 11.9027,-3.205 22.0565,-10.5404 42.1887,-30.4779 14.5823,-14.4414 27.7679,-26.2569 29.3011,-26.2569 1.5333,0 2.7877,-3.1958 2.7877,-7.1016 0,-8.5088 -1.0454,-8.4181 18.1952,-1.5783 8.5455,3.0378 26.5887,7.8653 40.0958,10.7278 13.5072,2.8624 29.6743,8.3662 35.927,12.2307 7.2406,4.4748 17.6277,7.0261 28.6059,7.0261 16.1007,0 16.7507,0.3408 9.8582,5.1685 -5.563,3.8964 -8.4404,11.9803 -11.6911,32.8449 -3.1327,20.1062 -7.6433,33.1644 -16.4912,47.7409 -14.4008,23.7245 -14.928,29.8671 -3.8528,44.8788 12.0643,16.3521 20.0855,21.7229 73.3419,49.1069 55.8963,28.7414 131.8514,75.7891 191.3527,118.5267 58.6333,42.1143 167.2775,135.016 167.2775,143.0393 0,17.3159 28.5654,48.7036 44.3242,48.7036 11.5707,0 42.748,26.5018 97.8052,83.1378 97.0969,99.8808 144.9282,162.9508 234.2261,308.8478 72.6815,118.7488 118.153,252.9225 112.9127,333.1745 -2.8335,43.3883 -15.8969,61.1107 -71.1298,96.4948 -27.9611,17.9126 -40.9325,23.0721 -45.7918,18.213 l 0,10e-5 z"
         style="fill:#ffffff;fill-opacity:1;fill-rule:nonzero;stroke:#020202;stroke-width:0;stroke-linecap:round;stroke-linejoin:round;stroke-miterlimit:4;stroke-opacity:1;stroke-dasharray:none;stroke-dashoffset:0;marker:none;visibility:visible;display:inline;overflow:visible;enable-background:accumulate" />
      <g
         transform="translate(343.42071,398.18925)"
         id="g10067">
        <path
           inkscape:connector-curvature="0"
           style="fill:#ffffff;fill-opacity:1;fill-rule:nonzero;stroke:#020202;stroke-width:0;stroke-linecap:round;stroke-linejoin:round;stroke-miterlimit:4;stroke-opacity:1;stroke-dashoffset:0;marker:none;visibility:visible;display:inline;overflow:visible;enable-background:accumulate"
           d="m 2465.645,4281.4723 c -55.2559,0.7919 46.8729,54.4941 12.0416,95.7203 -53.0438,61.8804 10.8055,141.4242 -2.3351,220.8646 -9.0297,55.6515 -65.8183,123.0042 -130.3059,119.2518 -9.3111,-0.5418 -270.613,7.3778 -272.3652,22.2503 -1.7523,14.8726 -16.583,118.3325 81.9802,108.6362 21.8802,-2.1525 121.0669,4.5352 153.9365,11.9212 22.6103,5.0807 89.9675,31.0305 112.9336,37.0794 36.3958,33.5656 127.7992,59.5561 172.7077,102.3629 42.4027,20.4148 183.0273,48.0967 225.8789,28.0712 56.11,-25.2585 102.9643,-99.8187 66.7853,-140.6862 -11.3272,-90.7184 -18.1892,-149.0111 -93.0769,-253.1407 -77.593,-108.374 -77.5176,-148.23 -147.2181,-225.8545 -31.7045,-45.1784 -74.9195,-121.5064 -130.3781,-132.3244 -10.9108,-2.1131 -39.473,5.6412 -50.5845,5.8479 z"
           id="path10069"
           sodipodi:nodetypes="cccsssscccccccc" />
        <g
           id="g10071"
           transform="translate(-33.104857,-654.11466)">
          <path
             inkscape:connector-curvature="0"
             sodipodi:nodetypes="ccccsscccccccccccscscsc"
             id="path10073"
             d="m 1130.75,4228.5938 c -11.1419,0.02 -22.7083,2.3267 -36.1562,8.0937 -138.39116,118.7323 -337.86018,104.3108 -364.43755,158 -50.09621,101.1993 41.49199,188.6512 61.625,223.9063 66.78192,116.9179 8.01285,165.6235 77.87593,179.8424 80.6135,16.4069 -160.2914,-26.3181 -11.12593,169.4388 43.7386,57.4002 166.11995,182.3628 362.09375,218.2812 85.7377,15.7144 115.6817,87.7473 173.5312,85.2188 45.9053,-51.5987 111.3747,-118.1987 178.875,-206.3125 -49.2714,107.8631 -86.6123,207.2075 -108.7187,265.7813 15.8642,29.8964 120.1272,20.085 186.9063,76.8124 125.4897,106.6016 333.4746,116.8336 370.3938,52.1989 42.2009,-73.8819 -31.4904,-16.9572 44.5749,-56.8239 76.0652,-39.8668 119.12,-22.7645 258.25,-23.25 41.9507,-0.1498 94.6335,27.3965 162.9375,-67.5 36.2372,-50.345 15.0948,-161.3673 -12.4688,-212.8124 25.2257,-77.6366 6.7719,-92.4318 -10.5,-178.6876 -19.7291,-98.5278 -175.8425,-197.9984 -324.5937,-304.9062 -143.5143,-103.144 -277.8877,-13.1336 -389.6875,136.7188 -27.7961,-95.4905 -60.3893,-195.4957 -4.8351,-251.9706 48.4451,-49.248 2.101,-118.7081 -67.4149,-138.6544 -174.7376,-50.1378 -320.4276,-92.9049 -419.7812,-105.1563 -64.4017,-7.9414 -93.918,-28.2778 -127.3438,-28.2187 z"
             style="fill:#ff7f2a;fill-opacity:1;fill-rule:nonzero;stroke:#020202;stroke-width:0;stroke-linecap:round;stroke-linejoin:round;stroke-miterlimit:4;stroke-opacity:1;stroke-dashoffset:0;marker:none;visibility:visible;display:inline;overflow:visible;enable-background:accumulate" />
          <path
             inkscape:connector-curvature="0"
             sodipodi:nodetypes="csssssssssscssccscsssssssssccsssssssssssscssssssssssssssscsccsssssscsssscsssssscsssssssssssssssssssccssscsssccscssscssssssssssccsssssccssccsscssccssscccsccssssccsssssccsssccscsccccccccsssccsssscsccssccsssccsssccscccscssccsssccsscssssccssscscscccsssccssssccsssccsssccsssccsssccsssccsccccscccscssccsssccsssssccsssccsssccscsccssssssccssssccsssccsssccsssccssscccscsssscsssccsccscscsscccsssccsssccsssccsssccsssssscscsccssssccsssccssccccssccccsssssccccssssscssccssssccsccccccsssssccsccsscccccscssssccccsscssssscccssscssccsssscccccssscscccsssscccssccsscccssscscccsssssccssccsssccsssccsssccsssccccccccssssscsssccsssccsssccssccscccssccsssccsssccsssccsssccssssccsssscccssccsssssscsccsssccsssssccccsccssssccsssccscccsssccscccsssccsssccsssccssssccsssccsssccssssccscccscsccsssccsssccsssccsssccsssccscsccsssccssscccsccccsccssccsssccsssccssccssccssssccscccsssccsssccsssssccsssc"
             id="path10075"
             transform="translate(-360.65451,255.92541)"
             d="m 2004.4062,3700.6562 c -1.9474,0.092 -3.3184,2.3088 -2.0312,5.875 29.6965,82.2745 66.3972,160.8954 115.6562,231.0938 42.0258,59.8904 74.7613,101.2108 141.375,143.75 5.9112,3.7748 8.4476,17.263 3.125,17.9062 -13.8053,1.6692 -23.5781,13.8275 -27.0312,25.75 -3.1703,10.9459 -24.2249,21.5718 -31.625,25.5938 -4.8397,2.6304 -7.9959,3.5903 -12.2812,5.4062 -2.6279,1.1136 -7.8471,2.4688 -12.2188,2.4688 -8.1183,1e-4 -22.2134,-4.868 -31.3125,-10.8125 -26.4145,-17.2571 -235.4547,-105.3901 -304.1563,-131.9063 -143.5473,-55.4039 -255.7918,-72.9719 -379.5937,-102.3437 -135.9082,-32.2432 -256.0929,-45.5074 -403.3437,-45 -21.0359,0.073 -42.6417,0.4428 -64.9063,1.0625 -138.43412,3.8529 -156.92745,6.0493 -252.03125,30.125 -141.62682,35.8527 -183.31675,63.8342 -190.53125,127.8438 -2.12373,18.8386 -6.64735,35.9711 -10.03125,38.0624 -10.52518,6.505 1.8305,26.5325 20.8125,33.75 9.9582,3.7857 16.03095,10.2924 13.46875,14.4376 -2.56149,4.1457 0.70545,9.6015 7.28125,12.125 6.57653,2.5235 16.6996,15.931 22.5,29.8124 5.79972,13.8813 15.8383,25.2502 22.3125,25.25 6.47349,-1e-4 14.9371,8.3393 18.8125,18.5313 4.28852,11.2802 11.11355,16.9775 17.40625,14.5625 5.86757,-2.2516 15.7288,4.2824 22.8125,15.0938 8.75262,13.3584 19.12445,19.0312 34.71875,19.0312 15.2843,0 22.25,3.7031 22.25,11.8125 -10e-6,8.9908 4.8763,10.7261 20.5625,7.2813 16.91347,-3.715 25.0258,0.1719 45.4375,21.8124 15.1207,16.0296 31.90905,26.3438 42.90625,26.3438 9.9373,1e-4 25.20455,7.1108 33.90625,15.8125 8.70179,8.7018 24.65515,18.1858 35.46875,21.0625 11.22813,2.9866 28.6743,18.5985 40.6875,36.4375 11.57018,17.1808 26.7071,31.37 33.625,31.5 6.9187,0.1309 17.7763,4.3077 24.125,9.3125 18.9364,14.9282 44.4687,77.7843 44.4687,109.4375 0,16.2369 3.3603,31.586 7.4688,34.125 9.8304,6.0753 9.7189,63.5 -0.125,63.5 -10.7298,-1e-4 -4.1208,29.4561 14.3438,63.9063 8.624,16.0902 15.6876,36.3548 15.6874,45.0312 1e-4,8.6765 6.7962,23.616 15.125,33.2188 16.638,19.1837 26.0032,47.3487 19.3438,58.125 -9.1955,14.8779 27.7381,36.6097 64.875,38.1874 7.8733,0.3346 17.7368,10.8149 23.7812,25.2813 5.6809,13.5966 18.9561,28.6648 29.5,33.4687 10.6125,4.8354 19.1563,14.9688 19.1563,22.6876 -10e-5,14.3706 21.7418,38.6562 34.5937,38.6562 15.129,-1e-4 47.476,19.051 47.5313,28 0.032,5.1356 4.2703,9.7451 9.4063,10.2188 30.6903,2.8317 57.875,13.2545 57.875,22.1874 0,3.9098 7.9423,5.1257 17.6562,2.6876 12.3688,-3.1046 19.0763,-0.7528 22.375,7.8437 3.2001,8.3401 9.56,10.7228 19.8125,7.4687 9.3717,-2.9746 24.8199,1.229 40.7813,11.0938 14.1346,8.7352 30.057,15.2701 35.375,14.5 14.1309,-2.0466 58.2187,9.0946 58.2187,14.7188 0,10.9448 74.2043,1.3249 101.4375,-13.1563 40.2333,-21.3939 40.6475,-32.2684 92.4375,-88.3125 42.7962,-46.311 47.9064,-75.7522 37.6875,-26.9375 -1.2893,6.1595 -11.5877,30.5605 -25.75,53.875 -38.3267,63.0921 -58.1044,113.4703 -53.5312,136.4063 4.9973,25.0585 48.7567,69.6562 68.3437,69.6562 8.0795,0 13.8396,4.2081 12.8125,9.3438 -1.0272,5.1355 3.1809,9.3126 9.3438,9.3124 6.1627,10e-5 11.1875,-3.5839 11.1874,-7.9687 0,-9.6221 30.2967,-1.8124 41.0938,10.5937 4.1084,4.721 15.8852,8.5938 26.1562,8.5938 13.6036,-1e-4 18.3457,3.755 17.5,13.8125 -0.9293,11.0675 2.7716,13.0498 18.5626,10.0313 21.3073,-4.0727 61.0312,12.6068 61.0312,25.625 0,5.3942 14.7282,6.3293 45.0312,2.8124 28.7818,-3.3406 48.4872,-2.3337 54.6876,2.8126 5.3335,4.4258 21.2363,7.6781 35.3124,7.2187 14.0765,-0.4602 40.202,6.8521 58.0626,16.25 20.0329,10.5407 34.3356,14.2112 37.3437,9.5937 9.2091,-14.1352 37.5327,-24.6562 66.375,-24.6562 15.8826,0 32.0969,-3.1042 36,-6.875 11.4872,-11.0972 78.0311,-18.6362 78.0313,-8.8438 -1e-4,12.5732 29.1435,-7.4752 34.25,-23.5624 4.8009,-15.1258 43.0716,-37.0773 69.9687,-40.125 10.0576,-1.1389 28.5235,2.4987 41.0625,8.0937 30.1877,13.4692 63.2795,18.5741 68.25,10.5313 6.2037,-10.0376 31.5631,-7.6055 38.2188,3.6562 3.2853,5.5597 19.4567,11.8651 35.9374,14 16.4811,2.1349 45.3158,14.2231 64.0626,26.875 22.0722,14.8965 39.5777,21.5501 49.6874,18.9062 10.8321,-2.8324 18.1382,0.6514 23.8438,11.3126 4.5231,8.4505 12.4882,13.6941 17.7188,11.6874 5.2298,-2.007 19.2775,6.538 31.1874,18.9688 15.2843,15.9526 28.6908,22.5936 45.5938,22.5938 14.8645,0 25.646,4.4444 28.4375,11.7187 2.9186,7.6042 9.5798,10.126 18.9375,7.1563 8.7653,-2.7827 16.8208,-0.3459 20.5625,6.2187 7.1711,12.5807 37.4385,17.1059 57.3437,8.5625 8.541,-3.6654 15.8867,-2.5684 19.25,2.875 2.9957,4.8466 11.1178,6.6222 18.0313,3.9688 6.9143,-2.6523 16.7292,-1.5685 21.8125,2.4062 13.8726,10.8472 42.8437,16.4719 42.8438,8.3125 10e-5,-3.9335 10.9286,-11.8146 24.2812,-17.5 43.5826,-18.5571 71.0744,-50.516 76.9062,-89.4063 7.0226,-46.8291 -13.048,-140.4538 -45.9062,-214.1562 -13.9681,-31.3303 -25.375,-59.1077 -25.375,-61.7188 0,-2.6106 -13.0651,-24.0475 -29,-47.625 -15.9342,-23.5764 -34.0647,-52.9558 -40.3125,-65.2812 -38.0595,-75.0814 -146.3162,-214.2377 -214.5625,-275.8125 -18.4882,-16.6806 -45.8873,-43.1398 -60.875,-58.8125 -17.9765,-18.7975 -28.4321,-25.1854 -30.75,-18.75 -2.4485,6.7986 -10.5393,3.2062 -26.6562,-11.9062 -21.6613,-20.3108 -25.9231,-42.2275 -5.6563,-29.0938 9.0923,5.8915 1.6503,-0.7321 -105.9687,-93.6875 -79.7935,-68.9215 -266.8681,-187.9689 -295.375,-187.9687 -12.4763,2e-4 -45.1664,-29.1185 -51.6563,-46.0313 -2.917,-7.6001 2.3694,-18.6744 14.1563,-29.7187 14.691,-13.7655 12.7749,-23.4587 15,-41 2.5704,-20.2631 -11.5996,-31.7485 29.375,-46.3126 4.2677,-1.5169 8.0268,-3.1212 11.5624,-4.4687 47.4572,-10.0914 93.2204,-25.1877 137.9688,-43.1875 63.4378,-25.5174 125.1665,-52.2867 186.2188,-84.0938 9.2487,-4.8184 3.0596,-11.0999 -2.25,-8.4687 -61.6659,30.559 -122.6531,62.498 -185.8126,87.9063 -59.8057,24.0591 -121.4838,45.5546 -186.1562,51.4062 -7.6786,0.6948 -15.8231,-7.0738 -25.7812,-15.2188 -10.5017,-8.5893 -22.5867,1.1463 -55.25,-13.5937 -6.221,-2.8073 -20.3491,-1.0631 -29.4376,-6.6563 -67.6583,-41.6371 -110.3445,-91.117 -152.5937,-151.3437 -48.9008,-69.7087 -78.5063,-150.0751 -113.0313,-230 -1.2501,-2.8941 -3.1103,-4.1027 -4.625,-4.0313 z M 1197.4688,3885.75 c 0.9768,0.012 1.8859,0.083 2.75,0.25 6.8625,1.3281 14.293,2.6863 16.5,3 2.2073,0.3146 4.5057,7.283 5.125,15.5 0.9688,12.8648 -3.4545,14.9375 -32,14.9375 -18.2328,0 -33.1563,-3.1558 -33.1563,-7.0313 0,-10.3603 26.1282,-26.8406 40.7813,-26.6562 z m -380.6563,11.625 c 21.31559,0.1292 21.69795,0.6932 7.90625,11.125 -15.68168,11.8607 -63.9375,15.1334 -63.9375,4.3438 10e-6,-8.2829 26.68325,-15.6466 56.03125,-15.4688 z m 562,7.25 c 8.8403,-0.2034 19.0594,1.1988 27.5,4.4375 6.4981,2.4943 11.8125,7.273 11.8125,10.6563 0,10.836 -63.7147,18.4002 -85.2812,10.125 -19.1873,-7.363 -13.4932,-18.573 6.8437,-13.4688 11.5068,2.8878 18.6875,1.5076 18.6875,-3.5938 0,-5.0123 9.0714,-7.8947 20.4375,-8.1562 z m -303.3125,7.3438 c 20.7269,-1e-4 30.5342,4.0551 36.375,14.9687 4.3975,8.2169 5.3513,15.1462 2.125,15.4063 -3.2255,0.2606 1.2646,3.3476 10,6.875 20.121,8.1251 16.1748,36.3769 -8.875,63.4062 -20.5215,22.1423 -34.8106,23.6882 -55.4688,6 -44.7726,-20.3982 27.7249,-52.5637 0.3438,-65.4375 -13.6529,-4.3333 -25.0185,-29.0451 -17.0312,-37.0313 2.2917,-2.2924 16.9264,-4.1876 32.5312,-4.1874 z m -323.84375,15.7187 c 13.81464,-0.2254 16.59375,2.9709 16.59375,13.3125 -2e-5,16.9635 -27.9102,39.6341 -44.8125,36.4062 -6.9807,-1.3334 -11.21875,-10.5395 -11.21875,-24.4374 0,-20.3856 2.402,-22.5067 28,-24.625 4.46643,-0.3697 8.24951,-0.6043 11.4375,-0.6563 z m 553.90625,22.5 c 0.5679,-0.012 1.1602,0 1.75,0 20.4466,0.1559 53.4549,9.7178 56.2187,18.1875 3.1031,9.5094 -31.0203,23.8744 -59.3124,24.9688 -17.2085,0.6655 -20.5625,-2.253 -20.5626,-18.0938 0,-10.4937 5.3554,-20.9699 12.0313,-23.5312 2.499,-0.959 5.8996,-1.4502 9.875,-1.5313 z m -686.28125,14.0937 c 3.86581,0 7.03125,3.3604 7.03125,7.4688 0,4.1086 -5.25075,7.4688 -11.65625,7.4688 -6.40483,-2e-4 -9.57025,-3.3603 -7.03125,-7.4688 2.53983,-4.1083 7.78985,-7.4688 11.65625,-7.4688 z m 186.625,31.75 c 2.53028,-0.038 5.0526,0.5602 7.28125,1.9376 4.17498,2.5808 5.64545,7.8011 3.28125,11.625 -5.607,9.0736 -25.8125,9.0269 -25.8125,-0.063 2e-5,-7.5656 7.65917,-13.3846 15.25,-13.5 z m 695.99995,5.5938 c 61.9805,1e-4 249.9957,44.6736 324.5,67.8125 113.4247,35.2268 172.6912,35.4323 288.9376,112.7187 16.1037,10.7067 -2.5586,28.2345 -62.375,56.8126 -26.641,12.7272 -68.3424,38.6466 -95.125,53.3437 -65.7619,36.0858 -117.7961,63.7999 -184.9063,93.0937 -105.3197,45.9731 -191.5406,82.1236 -301.2813,126.0313 -48.9708,19.5939 -96.8838,52.3886 -150.8437,33.6563 -38.3018,-13.2965 -48.5818,-38.0116 -48.625,-82.0626 -0.037,-37.4868 33.1689,-42.4009 55.7187,-60.6562 6.6336,-5.3704 45.3766,-27.9125 86.4376,-49.6875 41.0609,-21.7754 83.0795,-45.4249 93.375,-52.5625 10.295,-7.1384 50.6571,-32.4231 89.6874,-56.2188 1e-4,10e-5 46.973,-36.5074 70.9688,-43.2812 21.5673,-6.088 74.6875,-0.2186 74.6875,-0.2188 49.1329,-0.1359 327.3377,24.0807 340.9375,12.3126 15.9462,-13.7987 2.9147,-18.95 -75.5938,-25.0313 -41.0646,-3.1806 -77.2108,-7.2859 -80.3437,-9.125 -3.1337,-1.8399 -64.5391,-5.6281 -136.4375,-8.4063 -151.1381,-5.8397 -282.5503,-28.5867 -372.375,-64.4687 -66.1316,-26.4168 -76.6818,-34.1958 -56.5312,-41.6563 7.8771,-2.9164 16.0082,-7.5542 18.0624,-10.3124 8.0639,-10.8293 59.9859,-52.0938 121.125,-52.0938 z m -876.8437,0.1875 c 5.01256,7e-4 8.71875,2.196 8.71875,6.9063 -3e-5,9.2701 -24.041,22.6614 -31.9375,17.7812 -3.36823,-2.0817 -2.1857,-8.5462 2.625,-14.3438 5.56829,-6.7091 14.14903,-10.3445 20.59375,-10.3437 z m 87.9375,4.875 c 3.24013,-0.02 5.73792,0.8644 7,2.9063 6.68272,10.8135 -18.11825,36.8437 -35.09375,36.8437 -7.5805,0 -13.78125,-4.9426 -13.78125,-11 -2e-5,-11.7399 27.83443,-28.6629 41.875,-28.75 z m 567.9375,9.875 c 28.9573,1e-4 15.6037,38.7696 -16.125,46.8125 -25.9432,6.5762 -31.7474,5.7008 -36.0313,-5.4375 -5.4239,-14.1363 28.9053,-41.375 52.1563,-41.375 z m -347.34375,15.625 c 15.85026,-0.1598 30.41619,3.72 41.03125,12.5313 23.99129,19.9141 -45.79905,35.1084 -64.46875,47.5937 -24.54629,16.4138 -80.59445,11.6785 -88.53125,8.875 -3.10013,-1.0953 11.5994,-11.4591 16.375,-18.7813 19.55016,-29.9748 60.72318,-49.8672 95.59375,-50.2187 z m -310.0625,37.5625 c 5.78926,-0.1138 10.25,1.4956 10.25,5.4375 -3e-5,7.8576 -12.3158,14.5341 -28.625,15.5 -5.47769,0.3241 -8.59745,-3.6144 -6.90625,-8.75 2.30824,-7.0072 15.63248,-11.9978 25.28125,-12.1875 z m 402.12495,6.7812 c 8.1885,-0.063 11.5952,3.7034 8.6876,11.2813 -2.5084,6.537 0.3836,13.3305 6.6874,15.75 16.6924,6.4057 13.2916,37.5975 -5.5312,50.7813 -20.0756,14.0619 -37.7938,14.7284 -60.0625,2.2812 -9.18881,-5.1357 -17.86345,-9.9234 -19.28125,-10.6562 -1.41859,-0.7335 -0.3819,-11.3869 2.3125,-23.6563 3.40109,-15.4851 12.52395,-25.9379 29.84375,-34.1563 16.1837,-7.6798 29.1553,-11.5618 37.3437,-11.625 z m 271,19.1876 c 13.5801,-0.1368 26.1625,0.9118 36.875,3.3124 45.392,10.1724 114.4688,37.0663 114.4688,44.5626 0,3.5363 -7.5685,8.7285 -16.8125,11.5312 -27.048,8.2012 -186.0189,72.0487 -206.875,83.0938 -19.4518,10.3009 -57.9815,7.3398 -90.0313,0.5624 -15.4126,-3.2592 -67.9507,4.4876 -42.2187,-16.5312 7.6014,-5.7587 11.6681,-13.9527 9.0313,-18.2188 -4.5292,-7.3283 12.6628,-40.4534 29.4687,-56.75 29.2985,-28.4095 107.2469,-50.97 166.0937,-51.5624 z m -564.0312,10.9687 c 5.43247,-0.093 10.96501,1.7463 15.1875,5.9687 5.49188,5.4921 4.90365,11.4063 -1.96875,19.6876 -13.00152,15.6659 -33.625,11.0888 -33.625,-7.4688 0,-10.8294 10.03518,-18.0099 20.40625,-18.1875 z m -87.8125,2 c 2.32805,-0.095 3.90625,1.5402 3.90625,4.5313 -10e-6,4.3511 -3.36035,7.9378 -7.46875,7.9374 -4.1085,-1e-4 -7.46875,-1.501 -7.46875,-3.3124 -3e-5,-1.8124 3.36025,-5.3665 7.46875,-7.9063 1.28387,-0.7934 2.5043,-1.2068 3.5625,-1.25 z m 1674.7813,6.3437 c 1.6975,0.051 2.4062,2.3642 2.4062,7.0938 1e-4,14.8486 -10.0381,24.9182 -13.75,13.7812 -1.5754,-4.7245 0.8674,-12.3353 5.4375,-16.9062 2.6691,-2.6686 4.5856,-4.0085 5.9063,-3.9688 z m -49.0626,8.0938 c 3.427,-0.2181 7.3762,1.4352 11.4376,5.8125 8.947,9.6431 4.8841,37.0311 -5.9063,37.0313 -3.7619,-2e-4 -7.3878,-7.1246 -12.1875,-13.0938 -9.3041,-11.5712 -3.6247,-29.0958 6.6562,-29.75 z m 86.2188,23.4688 c 3.5378,0.011 1.2388,7.0374 -4.6875,22.625 -7.2137,18.9729 -25.2101,25.5619 -33.4375,12.25 -2.3447,-3.794 5.8448,-14.0955 18.2188,-22.9063 10.8687,-7.7392 17.1546,-11.9772 19.9062,-11.9687 z M 671.125,4154.75 c 5.47848,0 11.38245,4.2081 13.09375,9.3438 1.85179,5.5547 -3.46575,9.3437 -13.09375,9.3437 -9.62732,1e-4 -14.9136,-3.7894 -13.0625,-9.3437 1.71213,-5.1356 7.5848,-9.3438 13.0625,-9.3438 z m 242.0625,6.2188 c 5.77131,-2e-4 8.7895,4.491 6.6875,9.9687 -2.10211,5.4778 -6.8315,9.9687 -10.5,9.9687 -3.6693,-1e-4 -6.6875,-4.491 -6.6875,-9.9687 -10e-6,-5.4776 4.7287,-9.9689 10.5,-9.9687 z m 586.375,1.2812 c 1.4438,-0.016 2.8891,-0.015 4.3437,0 21.1616,0.2194 43.7002,3.6576 73.5313,9.25 l 58.4375,10.9688 -17.375,18.5 c -30.4288,32.4168 -282.5516,159.5944 -339.3438,188.9687 -66.7438,34.5217 -134.8148,-73.1012 -91.4687,-103.4375 18.5943,-13.0133 90.9958,-47.9153 133.3437,-66.7188 93.3958,-41.4691 133.7732,-57.0375 178.5313,-57.5312 z m 719.3437,5.4688 c 7.8816,2.6509 7.7747,5.6256 -0.5312,15.6874 -8.9384,10.8285 -23.5583,15.1595 -28.8438,10.375 -0.7526,-2.5404 -1.8415,-5.3627 -1.375,-8.125 0.5586,-3.3078 3.5154,-7.496 6.9688,-8.5624 16.9174,-5.2239 7.5189,-7.8774 23.7812,-9.375 z m -1409.5937,13.1874 c 11.6202,-1e-4 18.6875,4.2157 18.6875,11.1876 -2e-5,6.9726 -7.0673,11.2187 -18.6875,11.2187 -11.6196,1e-4 -18.65625,-4.2463 -18.65625,-11.2187 3e-5,-6.9716 7.03665,-11.1874 18.65625,-11.1876 z m 1332.3125,17.125 c 2.4673,-0.064 5.9424,0.077 10.5312,0.3438 11.2363,0.6531 20.4352,1.8347 20.4376,2.5938 0.028,7.3912 -15.6629,39.6877 -19.2813,39.6874 -2.5951,-2e-4 -2.6277,-5.4714 -0.062,-12.1562 2.7819,-7.2489 -0.6276,-16.0078 -8.4375,-21.7188 -8.8245,-6.4522 -10.5895,-8.557 -3.1875,-8.75 z m -1373.03125,20.375 c 7.62422,-0.091 14.59375,1.8981 14.59375,6.0626 0,10.9142 -7.9109,14.6618 -22.75,10.7812 -7.9331,-2.0745 -12.59445,-6.7341 -10.34375,-10.375 2.59286,-4.1956 10.87578,-6.3776 18.5,-6.4688 z m 1559.84375,6.9063 c 4.3606,-0.015 8.9304,2.5752 12.4375,8.25 7.196,11.6426 -1.8248,29.5 -14.9062,29.5 -7.2221,0 -11.4376,-6.8655 -11.4376,-18.6563 0,-11.8628 6.6386,-19.0694 13.9063,-19.0937 z m -1361.71875,1.4687 c 10.07707,0.1209 19.97066,3.3111 25.78125,10.3126 10.3213,12.4357 10.1835,12.7663 -10.875,24.0937 -14.193,7.6337 -49.03125,-1.4255 -49.03125,-12.75 2e-5,-13.4986 17.32989,-21.8577 34.125,-21.6563 z M 2244.4688,4228.5 c 0.4174,0 0.7485,0.1235 1,0.375 2.0175,2.0174 -8.2188,20.2422 -22.75,40.4688 -14.5314,20.2262 -32.285,48.0949 -39.4688,61.9374 -7.184,13.8433 -14.4664,21.0031 -16.1875,15.9063 -1.7211,-5.0962 3.86,-18.1668 12.4063,-29.0313 8.5464,-10.8649 15.5312,-24.2217 15.5312,-29.6874 0,-11.1483 40.9814,-60.0546 49.4688,-59.9688 z m -1417.3438,6.4062 c 0.33105,-0.016 0.67202,-0.01 1,0 7.87144,0.2182 14.8125,7.3645 14.8125,17.4063 0,13.7151 -10.55665,13.8189 -21.84375,0.2187 -5.97969,-7.2053 -6.292,-12.0658 -0.9375,-15.375 2.28164,-1.4101 4.6514,-2.1405 6.96875,-2.25 z M 2333.625,4278 c 6.4048,-1e-4 9.5711,3.3603 7.0312,7.4688 -2.539,4.1086 -7.7586,7.4687 -11.625,7.4687 -3.8656,-1e-4 -7.0312,-3.3603 -7.0312,-7.4687 1e-4,-4.1083 5.2196,-7.4688 11.625,-7.4688 z m -1264.8438,2.4688 c 2.2878,-0.018 4.3073,0.4056 5.875,1.375 4.0233,2.4866 7.3126,9.3605 7.3126,15.2812 0,12.0715 -33.7757,15.0936 -40.8438,3.6562 -4.5884,-7.4239 15.3028,-20.2174 27.6562,-20.3124 z m -163.74995,6.1562 c 10.12493,0.1081 20.6032,6.9083 16.375,13.75 -5.87581,9.5071 -33.65625,9.9203 -33.65625,0.5 -10e-6,-3.8667 3.53885,-9.2142 7.84375,-11.875 2.74092,-1.6938 6.06252,-2.411 9.4375,-2.375 z m 1435.28125,9.9375 c 3.1447,0.012 6.151,1.1631 7.75,3.75 2.5801,4.1757 -0.5328,7.5625 -6.9375,7.5625 -6.4055,-1e-4 -11.6563,-1.4699 -11.6562,-3.2812 0,-4.928 5.6026,-8.0521 10.8437,-8.0313 z m 30.75,19.5937 c 2.586,-0.042 5.6972,0.5535 9.4687,1.6563 150.5301,44.0192 228.4032,136.8102 329.0938,238.4375 67.2095,67.8348 91.2637,97.8598 101.375,121.9062 9.9537,23.6737 11.2516,98.0225 1.9688,112.75 -3.0037,4.7654 -3.4132,13.998 -0.9063,20.5313 7.1002,18.5039 -5.8962,14.3232 -55.9063,-18 -25.4261,-16.4339 -48.8666,-29.875 -52.0937,-29.875 -12.3919,0 -140.0902,-132.1959 -155.125,-160.5937 -27.2548,-51.4802 -65.0521,-110.6705 -100.3125,-157.0313 -18.6869,-24.5695 -40.4354,-55.585 -48.3125,-68.9375 -14.7949,-25.079 -39.1563,-27.4233 -38.0313,-15.5625 0.7732,8.1474 17.1309,17.0333 26.5938,38.75 36.023,63.5432 61.727,102.3372 100.75,161.6875 4.3386,6.599 17.9448,31.709 28.9062,56.7812 19.13,43.7563 19.5199,47.0719 9.2188,82.1876 -12.0915,41.2213 -36.5476,186.476 -49.9375,296.5937 -7.609,62.578 -10.8175,76.3059 -26.8125,87.3437 -38.4277,26.5182 -112.0853,36.8561 -134.7188,-13.6874 -5.2234,-11.6651 -3.8466,-46.3121 0.6563,-87.1563 4.0764,-36.9762 6.5117,-122.7101 5.4375,-190.5 -3.3569,-211.8616 -2.7532,-234.3835 6.9062,-257.7187 10.3617,-25.0317 30.7379,-145.9953 25.9063,-153.8126 -2.4921,-4.0317 -2.3017,-20.603 0.4375,-36.8124 3.4951,-20.6894 6.2017,-28.7885 15.4375,-28.9376 z M 984,4324.5625 c 8.26917,-0.3801 15.8125,6.9148 15.8125,17.375 2e-5,13.7149 -10.55665,13.8185 -21.84375,0.2187 -5.9797,-7.2055 -6.292,-12.0655 -0.9375,-15.375 2.28163,-1.4102 4.65338,-2.1123 6.96875,-2.2187 z m 1113.9062,13.2187 c 4.1085,-1e-4 7.4688,3.3604 7.4688,7.4688 -1e-4,4.1086 -3.3602,7.4686 -7.4688,7.4688 -4.1085,-2e-4 -7.4687,-3.3603 -7.4687,-7.4688 0,-4.1083 3.3602,-7.4686 7.4687,-7.4688 z m -1005.5,10.5 c 2.4224,0.02 4.9015,0.4499 7.3126,1.375 12.4285,4.769 16.0746,19.0504 7.1562,27.9688 -8.8431,8.8428 -30.6343,5.2814 -34.8438,-5.6875 -4.536,-11.8216 7.2945,-23.7658 20.375,-23.6563 z m 957.0626,12.25 c 0.4972,0.015 0.988,0.072 1.4374,0.1563 13.2453,2.4954 2.6923,21.1337 -9.3437,38.25 -21.5515,30.6482 -42.693,53.2326 -64.8125,82.9375 -17.0346,22.8765 -26.5464,38.2943 -37.9688,49.5 -34.833,34.1699 -64.3354,80.1924 -98.5624,120.0312 -48.5608,56.5216 -66.7716,78.9868 -115.7813,150.5626 -16.0978,23.51 -27.0289,49.6547 -30.8437,54.1874 -3.8149,4.5319 -17.3117,24.3265 -30,43.9688 -19.209,29.7362 -25.7504,34.8171 -39.0313,30.4375 -8.7727,-2.8922 -22.658,-5.4973 -30.875,-5.8125 -15.1902,-0.5835 -50.028,-47.3637 -41,-70.5 41.4722,-106.282 106.5833,-184.6546 167.7813,-262.3125 37.1895,-47.1924 21.3772,-61.102 63.6562,-86.6563 46.4838,-28.0956 91.7801,-52.3375 141.9688,-76.625 43.0339,-20.8248 85.8652,-44.4372 94.9374,-52.9687 8.5052,-7.9974 20.9794,-15.3815 28.4376,-15.1563 z m -1012.4376,37.6876 c 1.2452,0.01 2.6533,0.1592 4.25,0.4687 7.3229,1.4201 14.8157,7.0972 16.6563,12.625 2.1409,6.4294 -1.4532,9.12 -9.9687,7.4687 -7.3228,-1.4191 -14.815,-7.0964 -16.6563,-12.625 -1.7388,-5.2234 0.3232,-7.9731 5.7187,-7.9374 z m 115.3438,27.5624 c 4.1855,-0.1291 9.0102,3.9145 10.5312,11.8126 1.7473,9.0729 -0.8296,12.7749 -7.375,10.5937 -5.5277,-1.8426 -10.0624,-7.269 -10.0624,-12.0625 0,-6.8546 3.2131,-10.2297 6.9062,-10.3438 z m -40.5,24.0313 c 4.1084,0 7.4688,5.2507 7.4688,11.6563 0,6.4045 -3.3604,9.571 -7.4688,7.0312 -4.1085,-2.5389 -7.4688,-7.7899 -7.4688,-11.6562 l -0.031,0 c 0,-3.8659 3.3915,-7.0313 7.5,-7.0313 z m 1138.0938,9 c 0.819,-0.056 1.4819,0.1381 1.9374,0.5937 1.9877,1.9877 -3.0423,23.334 -11.1562,47.4376 -10.8739,32.3029 -16.1363,75.246 -20.0312,163.3437 l -5.2813,64.0625 -37.5625,78.3125 c -51.9348,108.2476 -54.6264,144.8074 -117.3125,212.8125 -39.0827,56.6379 -32.8133,64.2555 -65.9063,65.5 -14.5029,0.5452 -29.8249,4.45 -34.0312,8.6562 -10.071,10.0708 -19.5937,9.7388 -19.5938,-0.6874 0,-4.6637 -6.5846,-6.6214 -14.9374,-4.4376 -8.2169,2.149 -14.8747,1.6966 -14.7813,-1 0.218,-6.3024 35.7644,-70.942 102.1563,-185.8124 44.5994,-77.1686 169.305,-339.9443 180.625,-379.0626 1.7828,-6.1629 -75.1893,153.0661 -105.1876,212.6563 -29.9984,59.591 -84.4485,157.9179 -121,218.5 -58.8011,97.462 -68.7327,110.125 -86.25,110.125 -10.8882,-2e-4 -23.851,4.0388 -28.7812,8.9687 -6.9717,6.9724 -9.1798,6.1588 -9.9062,-3.7187 -0.5133,-6.9846 -1.538,-16.8954 -2.2813,-22.0313 -2.5719,-17.7724 26.2434,-51.2371 40.2813,-46.7812 15.3888,4.884 48.1755,-42.3972 116,-167.3438 55.7087,-102.6272 166.1278,-279.1421 194.3124,-310.625 12.3254,-13.768 23.5106,-29.4903 24.875,-34.9374 2.823,-11.2701 25.8951,-33.991 33.8126,-34.5313 z m -1188.1563,8.5313 c 2.1297,-0.2288 6.0166,2.5881 12.6875,8.625 15.3462,13.8879 19.5534,26.1562 8.9688,26.1562 -3.2868,1e-4 -10.0074,-4.0386 -14.9376,-8.9688 -4.9302,-4.9301 -8.9687,-13.8663 -8.9687,-19.8437 0,-3.7746 0.5935,-5.7909 2.25,-5.9687 z m 954.4687,25.5624 c 3.9567,-0.2781 -4.4748,14.8504 -35.9062,56.375 -15.5796,20.5827 -25.8532,42.631 -28,47.1563 -29.9942,63.2473 -82.856,105.8245 -112.1875,168.5625 -20.6925,44.2617 -34.2041,74.5699 -28.0937,119.6562 1.6568,12.2276 -6.5277,28.8567 11.0312,37.6563 l 0.75,8.0937 c -22.5421,-3.9637 -24.1648,-2.6203 -31.8125,25.7813 -8.4523,31.3881 -19.5643,40.1628 -44.75,35.3125 -8.3155,-1.6013 -17.0859,0.2378 -19.4687,4.0938 -6.5453,10.5892 -18.3754,8.3918 -18.375,-3.4063 -1e-4,-5.7229 -4.825,-12.2381 -10.7188,-14.5 -5.8945,-2.2619 -14.0584,-10.339 -18.125,-17.9375 -6.0125,-11.235 5.6985,-33.9979 62.5938,-121.8125 64.8705,-100.1228 111.1769,-160.5044 127,-182.1563 29.6273,-40.5401 61.6806,-71.9481 92.0312,-108.5 23.3883,-28.1669 48.9441,-54.0172 54.0312,-54.375 z m -881.6874,53.3126 c 2.2351,0.038 4.2714,0.8026 5.9374,2.4687 12.7961,12.7961 11.608,32.3793 -1.3124,21.6563 -7.7135,-6.4019 -12.2607,-4.0641 -19.9376,10.2812 -11.8765,22.191 -14.875,23.1864 -14.875,4.8125 l -0.031,0 c 0,-18.1446 18.1489,-39.4218 30.2188,-39.2187 z m 568.7812,1.5 c 3.9025,-0.06 6.0935,0.9508 6.0938,3.25 -1e-4,15.4103 -38.3094,73.1213 -71.9063,108.3437 -22.0828,23.1507 -24.5446,31.9555 -40.1563,54.0937 -44.6568,63.3261 -79.7732,171.4143 -121.3437,166.5938 -30.2783,-3.5109 -42.8996,-4.198 -55.7187,-17.375 -9.0477,-9.3009 -19.9764,-16.9064 -24.2813,-16.9062 -13.6297,1e-4 -8.5248,-20.5303 14.9687,-60.375 43.012,-72.9488 81.4114,-124.9737 109.1563,-147.8438 43.8521,-36.1464 155.87,-89.3606 183.1875,-89.7812 z M 1175,4594.4062 c 5.0228,-0.6017 25.7081,14.1081 51.875,37.7813 16.0081,14.4827 31.2827,24.9843 33.9375,23.3437 2.6542,-1.6404 5.3083,3.5051 5.9063,11.4376 1.2765,16.9515 -21.4674,19.7834 -36.6876,4.5624 -5.4291,-5.4289 -13.2042,-11.333 -17.3124,-13.0937 -4.1086,-1.7606 -6.4959,-6.1687 -5.2813,-9.8125 1.2146,-3.644 -4.1764,-13.7248 -11.9687,-22.4062 -7.7934,-8.6815 -16.745,-20.33 -19.9063,-25.875 -2.1865,-3.8357 -2.2368,-5.7368 -0.5625,-5.9376 z m 282.2812,72.3438 c 9.2643,-0.3468 -5.0771,23.589 -45.75,87.3438 -33.419,52.3859 -40.1616,52.5207 -57.3437,46.0937 -41.4202,-15.4933 -38.4485,-12.7649 -68.5313,-50 1e-4,1e-4 -26.7947,-19.7302 -25.9062,-32.0625 0.5955,-8.2649 20.25,-18.7812 20.25,-18.7812 14.6621,-13.5889 25.692,-17.6557 39.9688,-14.9063 32.0997,6.1818 86.4514,11.1348 115.75,-7.0625 10.691,-6.6402 17.9375,-10.4893 21.5624,-10.625 z m -347.5,8.1875 c 0.9387,0 2.0134,0.1928 3.2188,0.5937 5.5285,1.8413 11.2369,9.3644 12.6562,16.6876 1.6508,8.516 -1.0393,12.1096 -7.4687,9.9687 -5.5278,-1.8408 -11.2362,-9.3647 -12.6563,-16.6875 -1.3413,-6.9193 0.1825,-10.578 4.25,-10.5625 z m 1452.8126,2.1563 c 6.417,0.066 30.2965,18.826 55.3437,43.75 l 48.5625,48.3437 -2.3125,150.5937 c -1.8851,122.8337 -4.3344,151.8674 -13.3125,157.4063 -7.139,4.4052 -37.0673,12.8646 -42.8438,13.0937 -17.02,0.6751 -79.6831,30.477 -99.125,-16.25 -11.7966,-28.3522 -9.604,-62.4429 7.5313,-196.0312 15.6047,-121.655 31.4758,-192.2203 45.125,-200.6562 0.2679,-0.1656 0.6033,-0.2544 1.0313,-0.25 z m 371.9374,16.4374 22.1563,21.2188 c 20.8635,19.9888 24.5564,40.0859 5.3437,29.0625 -4.8516,-2.784 -1.2753,3.2352 7.9688,13.4063 18.0413,19.8507 21.0469,28.75 9.7188,28.75 -3.8994,2e-4 -15.6449,-11.2285 -26.125,-24.9688 -10.4805,-13.7411 -19.0624,-34.5399 -19.0626,-46.2188 l 0,-21.25 z m -1778.7187,55.0938 c 7.6747,0 16.0775,27.109 10.2187,32.9688 -7.0822,7.0821 -16.8124,-3.6043 -16.8124,-18.4688 0,-7.974 2.9648,-14.5 6.5937,-14.5 z m 1753.75,14.9375 c 10.2823,0 54.844,38.546 54.8437,47.4375 0,26.7366 -39.3883,36.4355 -52.0312,12.8125 -8.5187,-15.9175 -10.5828,-60.25 -2.8125,-60.25 z m -216.9687,22.4687 c 16.7557,0.1773 85.8258,46.9873 106.9374,72.4688 34.692,41.8722 60.7623,144.5889 40.0626,157.875 -4.1906,2.6897 -10.0072,12.4923 -12.9063,21.7812 -2.8998,9.2891 -14.7142,21.7845 -26.25,27.75 -11.5366,5.9662 -18.9016,21.0919 -25.375,22.3126 -91.2279,17.1981 -82.5305,-124.5479 -84.7813,-178.375 -2.9447,-70.4246 -1.4599,-123.852 2.3126,-123.8126 z m -471.25,9.4376 c 12.6935,1.2934 -13.3526,273.579 -18.875,290.8437 -10.4208,32.5804 -54.7736,95.6008 -67.0938,95.3125 -6.2285,-0.1455 -19.5608,-4.833 -29.625,-10.4062 -10.0643,-5.5735 -22.6887,-8.456 -28.0312,-6.4063 -5.3425,2.0504 -9.7188,-0.8863 -9.7188,-6.5 0,-5.6144 -6.7206,-14.3992 -14.9375,-19.5313 -8.217,-5.1312 -14.9375,-14.7417 -14.9375,-21.375 29.3807,-76.2858 98.4133,-128.8182 126.9375,-204.875 13.4624,-35.8955 37.7881,-89.2338 54.125,-115.2187 0.6809,-1.083 1.2985,-1.6893 1.8437,-1.8125 0.1048,-0.024 0.2125,-0.042 0.3126,-0.031 z M 1214.6875,4840 c 9.3522,-0.4771 18.9343,10.996 13.5625,19.6875 -5.3022,8.5794 -26.75,3.0926 -26.75,-6.8437 10e-5,-3.4265 3.6587,-8.49 8.125,-11.25 1.6206,-1.0016 3.3306,-1.5055 5.0625,-1.5938 z m 1837.375,1.0312 c 14.2189,0 24.4063,15.4214 24.4063,39.2188 0,29.2895 -10.4772,32.2143 -30.3126,8.4375 -17.3901,-20.8452 -18.377,-39.8909 -2.375,-46.0313 2.8719,-1.102 5.6482,-1.6251 8.2813,-1.625 z m -163.5,4.2813 c 12.6337,-0.094 22.2298,20.0342 17.5937,50.8437 -3.2658,21.7032 -27.9147,22.2924 -39.3437,0.9376 -6.4689,-12.0871 -6.2295,-20.1158 1,-33.625 6.6919,-12.5039 14.1324,-18.1071 20.75,-18.1563 z m -1606.9687,46.25 c 0.9386,0 2.0133,0.2237 3.2187,0.625 5.5285,1.8412 11.2366,9.3331 12.6563,16.6563 1.6508,8.5159 -1.0394,12.1096 -7.4688,9.9687 -5.5278,-1.8408 -11.2362,-9.3335 -12.6562,-16.6563 l 0,-0.031 c -1.3414,-6.9189 0.1824,-10.5781 4.25,-10.5625 z m 580.1562,43.125 c 16.5023,-0.2846 5.9505,39.2261 -10.375,3.8437 4.242,-2.6799 7.6746,-3.7971 10.375,-3.8437 z m 1198.9375,5.8437 c 13.459,0.2339 31.2876,11.1781 42.125,27.7188 13.8015,21.0633 10.8129,30.7055 -11.3437,36.5 -10.0322,2.6233 -19.032,-1.4846 -26.7813,-12.1875 -11.1787,-15.4405 -11.6376,-15.4631 -10.3125,-1.1563 2.436,26.2979 -0.066,33.5938 -11.5312,33.5938 -6.1628,-1e-4 -11.2188,3.3601 -11.2188,7.4688 -1e-4,9.7155 -0.949,9.5725 -28.7188,-4.2813 -33.4556,-16.6893 -32.584,-46.8076 2.125,-73.2813 16.0501,-12.2418 27.526,-16.6629 30.5626,-11.75 3.0597,4.951 8.07,5.2963 13.5312,0.9063 3.0978,-2.4906 7.0762,-3.6091 11.5625,-3.5313 z m -1530.5,2.3126 c 4.1084,-3e-4 7.4688,3.3603 7.4687,7.4687 0,4.1085 -3.3602,7.4689 -7.4687,7.4687 -4.1085,3e-4 -7.469,-3.3602 -7.4687,-7.4687 0,-4.1084 3.3603,-7.4687 7.4687,-7.4687 z m 291.3125,7.4687 c 4.1085,0 7.4685,5.2507 7.4688,11.6563 0,6.4046 -3.3603,9.5398 -7.4688,7 -4.1085,-2.539 -7.4687,-7.7587 -7.4688,-11.625 1e-4,-3.8658 3.3603,-7.0313 7.4688,-7.0313 z m -465.625,7.4687 c 5.4778,3e-4 9.9688,6.7203 9.9688,14.9376 -1e-4,17.2363 -9.4206,19.386 -21.4376,4.9062 -9.1409,-11.0138 -4.0343,-19.8436 11.4688,-19.8438 z m 222.0625,14.9376 c 20.2063,1e-4 30.0312,16.3437 17.4063,28.9687 -11.9348,11.9348 -18.7256,10.4491 -27.5626,-6.0625 -10.9853,-20.5272 -9.9214,-22.9062 10.1563,-22.9062 z m -156.6875,14.9374 c 6.5048,2e-4 11.8125,5.3382 11.8125,11.8438 -10e-5,13.1912 -16.0703,10.8829 -20.6875,-2.9688 -1.6262,-4.8784 2.3701,-8.875 8.875,-8.875 z m 229.3125,2.2813 c 2.3051,-0.064 4.7904,0.3521 7.375,1.3437 13.8067,5.2975 30.8226,32.3716 25.625,40.7813 -5.2731,8.532 -39.9361,-7.8596 -45.1875,-21.375 -4.3202,-11.1176 2.1985,-20.4735 12.1875,-20.75 z m -156.2187,13.6563 c 3.3957,0.034 5.9687,4.2276 5.9687,10.2187 0,11.7487 -12.0284,10.1404 -14.0313,-1.875 -0.5131,-3.0812 2.4542,-6.7248 6.5626,-8.0937 0.5135,-0.1712 1.0148,-0.2549 1.5,-0.25 z M 1736.2188,5025 c 5.8266,-1e-4 10.5937,5.056 10.5937,11.2188 -10e-5,7.4696 -7.4664,11.1876 -22.4063,11.1874 -12.3254,10e-5 -22.4062,-2.9869 -22.4062,-6.6562 0,-7.4492 18.0205,-15.75 34.2188,-15.75 z m -204.9688,0.125 c 6.732,-0.04 13.9351,4.1705 16.8438,11.75 7.5132,19.5803 -3.2085,27.5605 -18.4688,13.75 -7.712,-6.979 -12.2305,-15.5968 -10.0312,-19.1562 2.6599,-4.3034 7.0501,-6.3166 11.6562,-6.3438 z m 79.6875,31.7188 c 4.9767,-0.048 10.6232,0.5149 16.5313,1.8124 12.6084,2.7689 22.2187,9.7376 22.2187,16.0938 10e-5,8.7109 -5.4075,10.0707 -24.2813,6.0938 -13.3524,-2.8132 -27.0921,-7.7575 -30.5312,-10.9688 -7.8206,-7.304 1.1323,-12.8878 16.0625,-13.0312 z m 71.125,15.2187 c 1.6875,-0.134 4.4174,1.6489 8.7187,5.2187 6.1628,5.1148 11.2188,10.5735 11.2188,12.125 0,1.5507 -5.0559,2.8438 -11.2188,2.8438 -6.1626,1e-4 -11.2187,-5.4595 -11.2187,-12.125 0,-5.2733 0.5875,-7.9107 2.5,-8.0625 z m 1266.5625,1.25 c 29.0833,-0.5478 31.8402,41.543 3.125,68.1563 -24.3305,22.5478 -44.406,20.8764 -63.9062,-5.3438 -23.9179,-32.1598 -1.7758,-56.1112 57.9062,-62.625 0.9928,-0.1084 1.9368,-0.1698 2.875,-0.1875 z m -1133.0938,11 c 0.223,-0.021 0.4625,-0.018 0.6876,0 0.5139,0.042 1.0492,0.2123 1.5624,0.4687 4.1085,2.0541 6.5202,10.3704 5.375,18.5 -1.6464,11.688 -0.164,12.8516 7.0938,5.5938 10.8433,-10.8433 20.9108,-11.4477 35.5938,-2.1562 8.8884,5.6242 9.0669,8.8048 0.9687,18.5624 -12.1163,14.5991 -12.0768,14.5929 -38.8437,-1.2187 -14.692,-8.6793 -21.2518,-17.9551 -19.8126,-28 0.9718,-6.7804 4.0304,-11.4346 7.375,-11.75 z m 1219.0626,20.9687 c 20.1594,0.418 51.0202,83.0668 7.9062,131.375 -22.9175,25.6787 -52.2851,-81.0987 -22.0625,-124.5937 2.2739,-3.2724 7.7177,-5.3912 12.25,-6.5625 0.6252,-0.1616 1.2556,-0.232 1.9063,-0.2188 z m -822.25,10 c 3.2791,-0.3188 5.0627,4.2891 5.0624,14 1e-4,8.0447 13.4414,28.7555 29.875,46.0313 16.4339,17.2757 29.9063,32.3126 29.9063,33.4063 0,7.01 -52.7652,-2.4948 -55.6875,-10.0313 -1.9916,-5.1354 -11.5658,-9.3439 -21.2812,-9.3437 -26.6081,1e-4 -28.141,-5.985 -10.7188,-41.8438 10.0956,-20.7807 18.051,-31.7527 22.8438,-32.2188 z m 501.2812,14.3126 c 14.1616,-3e-4 21.2159,22.2146 10.9688,34.5624 -9.9268,11.9604 -26.2696,13.4233 -32.75,2.9376 -6.3231,-10.2309 9.5178,-37.5 21.7812,-37.5 z m -816.1875,0.8437 c 6.0657,0.044 5.6589,9.8324 -5.4375,22.0937 -8.9101,9.8454 -15.1482,12.3344 -17,6.7813 -1.6091,-4.8279 2.4264,-14.1461 8.9688,-20.6875 5.4071,-5.4071 9.8346,-7.8785 12.875,-8.1562 0.209,-0.019 0.398,-0.033 0.5937,-0.031 z m -109.5,9.625 c 1.6284,0.011 3.2638,0.461 4.8437,1.4375 7.7262,4.775 1.0762,17.9686 -9.0624,17.9688 -3.8658,1e-4 -7.0313,-2.7953 -7.0313,-6.2188 0,-7.5988 5.4343,-13.2253 11.25,-13.1875 z M 3239.5938,5152 c 3.4489,0 10.1695,8.5665 14.9374,19.0312 15.5347,34.0943 8.4489,52.4485 -12.25,31.75 C 3232.1387,5192.6383 3229.9886,5152 3239.5938,5152 z m -623.5,1.1562 c 0.9081,0 1.8244,0.078 2.7187,0.25 16.1926,3.1187 21.8936,28.2593 8.3125,36.6563 -13.4862,8.338 -32.1752,-10.9156 -26.0625,-26.8437 2.2779,-5.9368 8.6743,-10.0458 15.0313,-10.0626 z m -808.8126,6.3126 c 8.004,1e-4 29.1563,22.06 29.1563,30.4062 0,12.5728 -26.0888,7.231 -35.0937,-7.1875 -8.4866,-13.5903 -6.0301,-23.2189 5.9374,-23.2187 z m 705.1876,0 c 6.1626,1e-4 11.2187,3.3602 11.2187,7.4687 1e-4,4.1085 -5.0561,7.4687 -11.2187,7.4687 -6.1628,2e-4 -11.1873,-3.3602 -11.1876,-7.4687 2e-4,-4.1085 5.0248,-7.4689 11.1876,-7.4687 z m 288.5937,15.5937 c 7.8603,-0.1313 16.7737,3.2422 24.625,11.0937 13.8337,13.8336 14.9603,26.8523 3.3437,38.4688 -9.9984,9.9988 -40.8387,-1.569 -47,-17.625 -7.1836,-18.7208 4.0252,-31.6868 19.0313,-31.9375 z m -886.1875,14.2813 c 6.2254,1e-4 11.2187,6.6375 11.2188,14.9374 0,8.3008 -4.9933,14.9374 -11.2188,14.9376 -6.2248,1e-4 -11.1875,-6.637 -11.1875,-14.9376 0,-8.2997 4.9628,-14.9376 11.1875,-14.9374 z M 1867.7812,5191 c 0.2623,-0.014 0.5024,-0.011 0.75,0 1.3219,0.057 2.4255,0.4882 3.2188,1.2812 3.1725,3.1731 -0.7143,10.4965 -8.625,16.2813 -18.6525,13.6388 -25.7398,6.5206 -9.5938,-9.625 4.8143,-4.8148 10.3159,-7.7336 14.25,-7.9375 z m 1054.8126,7.8438 c 1.2825,-0.1215 3.0236,1.0236 5.3124,3.3124 4.5725,4.5724 6.0415,11.94 3.2813,16.4063 -7.727,12.5023 -11.5938,9.7244 -11.5937,-8.3125 0,-7.5418 0.8624,-11.2038 3,-11.4062 z m -417.1563,5.4374 c 5.92,2e-4 10.7813,3.3604 10.7813,7.4688 0,4.1083 -6.9152,7.4686 -15.375,7.4688 -8.459,1e-4 -13.3203,-3.3603 -10.7813,-7.4688 2.5398,-4.1086 9.4543,-7.4686 15.375,-7.4688 z m -216.4063,4.625 c 0.3911,-0.014 0.8164,-0.01 1.25,0 12.3974,0.277 41.5779,9.734 49.5,17.6563 10.5968,10.5967 -11.9889,9.9348 -36.125,-1.0625 -10.4646,-4.7679 -19,-11.2434 -19,-14.4062 0,-1.3958 1.6374,-2.0892 4.375,-2.1876 z m 292.9063,2.8438 c 7.7316,-2e-4 23.9062,16.1757 23.9063,23.9062 -1e-4,7.1689 -2.5975,7.3716 -18.0626,1.4376 -12.0004,-4.6053 -16.7834,-25.3438 -5.8437,-25.3438 z m 655.625,8.25 c 7.5302,0.03 13.726,6.1471 18.375,18.375 15.3814,40.4553 -28.6264,68.3903 -46.375,29.4375 -7.0188,-15.4052 -6.132,-21.2555 5.0625,-33.625 8.5969,-9.4997 16.2932,-14.2139 22.9375,-14.1875 z m -537.75,0.4688 c 3.8835,-0.1249 7.8628,0.7787 11.4063,2.9687 6.4742,4.0009 5.1333,8.321 -4.8126,15.5937 -17.9771,13.1447 -25.8437,12.7261 -25.8437,-1.375 0,-9.7997 9.3254,-16.8686 19.25,-17.1874 z m -725,7.5937 c 5.9265,-0.1088 11.0313,2.8455 11.0313,9.2813 -1e-4,6.9298 -6.3869,11.7498 -15.5626,11.75 -9.1282,0 -14.261,-3.8356 -12.4374,-9.3126 2.5,-7.5086 10.252,-11.5954 16.9687,-11.7187 z m 429.3437,6.0937 c 12.3254,10e-5 22.4063,3.3603 22.4063,7.4688 0,4.1083 -10.0805,7.4686 -22.4063,7.4688 -12.3254,0 -22.4062,-3.3603 -22.4062,-7.4688 0,-4.1087 10.0811,-7.4685 22.4062,-7.4688 z m 84.875,8.2188 c 13.2509,-0.3298 34.811,7.8865 30.7813,14.4062 -5.6137,9.0829 -18.9562,9.1339 -33.25,0.094 -6.044,-3.8225 -8.7394,-9.2287 -5.9687,-12 1.6631,-1.663 4.7275,-2.4077 8.4374,-2.5 z m 279.8438,8.1875 c 8.9013,0.096 23.7188,14.93 23.7188,26.2187 -1e-4,13.5215 -14.9449,9.2675 -25.3438,-7.2187 -4.2571,-6.7483 -5.3988,-14.6004 -2.5625,-17.4375 1.1105,-1.1105 2.5391,-1.5802 4.1875,-1.5625 z m -735.8125,13.6563 c 6.0765,-0.086 13.259,2.3913 16.2813,7.2812 8.0741,13.064 -3.8876,24.1208 -15.5938,14.4062 -5.7967,-4.8116 -10.5625,-11.7069 -10.5625,-15.3124 0,-4.2215 4.5133,-6.2987 9.875,-6.375 z m 108.25,15.5 c 5.1011,0.024 8.875,1.506 8.875,4.9687 1e-4,10.6679 -8.777,16.7189 -24.2813,16.7187 -8.1138,-2e-4 -12.9924,-4.052 -11.25,-9.3437 2.3369,-7.0953 16.9178,-12.3898 26.6563,-12.3437 z m 277.7813,6.75 c 8.2169,2e-4 14.9374,3.3602 14.9374,7.4687 0,4.1085 -6.7204,7.4688 -14.9374,7.4687 -8.217,-2e-4 -14.9373,-3.3602 -14.9376,-7.4687 0,-4.1085 6.7207,-7.4689 14.9376,-7.4687 z m 761.9374,0 c 8.2834,2e-4 10.369,39.4116 2.5,47.2812 -9.0878,9.0872 -30.6935,5.1728 -35.125,-6.375 -4.4334,-11.5543 18.973,-40.9064 32.625,-40.9062 z m -241.9062,0.8437 c 9.7134,0.1225 22.0308,6.2636 23.875,15.9375 2.6085,13.6888 -4.3124,16.1646 -24.125,8.5625 -6.4988,-2.4944 -11.8125,-9.4599 -11.8125,-15.4687 0,-6.3762 5.4165,-9.1151 12.0625,-9.0313 z m -64.3438,6.625 c 14.8825,0 19.408,7.9358 9.9376,17.4063 -9.0984,9.0979 -24.8751,5.1543 -24.875,-6.2188 10e-5,-6.2249 6.6375,-11.1875 14.9374,-11.1875 z m -545,1.875 c 2.5303,-0.038 5.0526,0.5602 7.2813,1.9375 4.175,2.5808 5.6452,7.8004 3.2813,11.625 -5.6069,9.0738 -25.8124,9.027 -25.8126,-0.062 0,-7.5655 7.6595,-13.3846 15.25,-13.5 z m -110.875,6.5937 c 3.3958,0.034 5.9688,4.1964 5.9688,10.1876 -1e-4,11.7488 -11.9973,10.1401 -14,-1.875 -0.5132,-3.0816 2.4227,-6.7245 6.5312,-8.0938 0.5136,-0.1712 1.0149,-0.2235 1.5,-0.2188 z m 835.1563,13.9376 c 16.9479,2e-4 26.3918,16.123 19.6875,33.5937 -5.503,14.3406 -22.701,14.3862 -34.5625,0.094 -12.4122,-14.9554 -4.13,-33.6876 14.875,-33.6874 z m -131.5313,14.9374 c 11.2161,2e-4 21.2487,18.1255 14.0313,25.3438 -5.2686,5.268 -24.4375,-9.464 -24.4375,-18.7812 0,-3.6056 4.6828,-6.5624 10.4062,-6.5626 z m 343.5938,10.3126 c 2.6787,0.1188 4.5625,3.1026 4.5625,7.9062 0,6.4055 -3.3605,11.6562 -7.4687,11.6562 -4.1086,3e-4 -7.4688,-3.1655 -7.4688,-7.0312 1e-4,-3.8665 3.36,-9.1164 7.4688,-11.6562 1.0271,-0.6348 2.0133,-0.9147 2.9062,-0.875 z m -40.5,19.5624 c 8.5941,3e-4 10.5514,24.543 2.5938,32.5 -8.2005,8.2004 -19.6988,-7.968 -14.7813,-20.7812 2.4703,-6.4393 7.9498,-11.7188 12.1875,-11.7188 z m -234.0625,2.5938 c 1.1323,-0.1713 1.9009,2.5614 2.125,8 0.3241,7.8747 -1.424,12.2637 -3.9063,9.7812 -2.4822,-2.4823 -2.751,-8.9198 -0.5937,-14.3124 0.8944,-2.2345 1.6956,-3.366 2.375,-3.4688 z m 43.25,18.1875 c 4.1855,-0.1292 8.9789,3.9146 10.5,11.8125 1.7472,9.0731 -0.7988,12.7749 -7.3437,10.5938 -5.5278,-1.8431 -10.0623,-7.269 -10.0626,-12.0626 0,-6.8545 3.2132,-10.2297 6.9063,-10.3437 z m 119.0937,3.7187 c 1.7268,0.1083 3.6811,1.3375 5.9688,3.625 4.5194,4.5195 5.9847,14.0616 3.25,21.1876 -3.6155,9.4234 -7.2115,10.6946 -13.1875,4.7187 -4.5194,-4.5192 -5.984,-14.0298 -3.25,-21.1563 2.0342,-5.3003 4.0513,-8.035 6.5,-8.3437 0.2381,-0.03 0.4721,-0.047 0.7187,-0.031 z m -47.125,5.375 c 4.3506,2e-4 5.8211,3.3603 3.2813,7.4688 -2.5389,4.1083 -6.094,7.4686 -7.9063,7.4688 -1.8113,0 -3.2812,-3.3604 -3.2812,-7.4688 0,-4.1086 3.5554,-7.4686 7.9062,-7.4688 z"
             style="fill:#000000" />
        </g>
      </g>
    </g>
  </g>
</svg>
